<svg width="107" height="109" viewBox="0 0 107 109" fill="none" xmlns="http://www.w3.org/2000/svg">
<g clip-path="url(#clip0_448_970)">
<path d="M97.7399 9.20898H1.18934V91.1389H97.7399V9.20898Z" fill="white"/>
<path d="M102.429 0.428766C104.189 0.369169 105.868 1.8539 105.876 3.85557C105.883 5.91425 104.134 7.35364 102.352 7.32773C100.571 7.30182 98.9318 5.74194 98.9487 3.82966C98.9642 2.06379 100.488 0.3601 102.429 0.428766Z" fill="#F5F5F6"/>
<path d="M104.183 5.95968C104.123 5.61246 104.09 5.26006 104.053 4.90896C104.014 4.58507 103.924 4.29356 103.665 4.06554C103.516 3.93598 103.516 3.82455 103.657 3.72091C104.092 3.40608 104.162 2.97854 104.082 2.494C104.059 2.33542 103.997 2.18492 103.902 2.05555C103.808 1.92618 103.683 1.82185 103.539 1.75163C103.323 1.62628 103.08 1.55433 102.83 1.54175C102.547 1.54175 102.263 1.54175 101.979 1.54175C101.695 1.54175 101.412 1.54175 101.129 1.54175C101.059 1.54845 100.994 1.58085 100.946 1.63273C100.898 1.68462 100.871 1.75234 100.87 1.82289C100.87 3.20485 100.87 4.5868 100.87 5.96875C100.873 6.00338 100.882 6.03718 100.897 6.06852C100.915 6.11753 100.948 6.15996 100.99 6.19024C101.033 6.22053 101.083 6.23725 101.136 6.23823C101.265 6.25248 101.462 6.13069 101.465 6.02705C101.478 5.56712 101.485 5.10718 101.498 4.64725C101.507 4.32336 101.628 4.19251 101.947 4.18992C102.195 4.186 102.443 4.19767 102.689 4.22489C103.163 4.28319 103.391 4.52029 103.433 4.97763C103.456 5.22379 103.456 5.47383 103.488 5.7187C103.516 5.85667 103.56 5.99099 103.618 6.11903C103.663 6.23045 103.943 6.29523 104.1 6.21879C104.196 6.17345 104.204 6.07757 104.183 5.95968ZM103.444 2.95912C103.421 3.133 103.342 3.29451 103.218 3.41914C103.095 3.54377 102.934 3.62471 102.76 3.64966C102.669 3.66265 102.578 3.66915 102.486 3.6691C102.097 3.6691 101.957 3.6691 101.818 3.6691C101.775 3.67137 101.732 3.66428 101.692 3.64833C101.652 3.63238 101.616 3.60794 101.586 3.57667C101.556 3.54541 101.533 3.50807 101.519 3.46722C101.505 3.42637 101.501 3.38297 101.505 3.34001C101.505 2.9915 101.505 2.6417 101.511 2.29319C101.513 2.25004 101.524 2.20769 101.542 2.16873C101.561 2.12976 101.587 2.09497 101.62 2.0665C101.652 2.03802 101.69 2.01645 101.731 2.00308C101.772 1.98971 101.816 1.98482 101.859 1.98872C102.068 1.98872 102.28 1.98094 102.488 1.98872C102.627 1.99963 102.765 2.02615 102.898 2.06776C103.302 2.19473 103.492 2.50696 103.448 2.95912H103.444Z" fill="#EA2849"/>
<path d="M102.412 0.000244141C101.378 0.000244141 100.387 0.410841 99.6561 1.14169C98.9253 1.87254 98.5147 2.86378 98.5147 3.89736C98.5147 4.93094 98.9253 5.92218 99.6561 6.65303C100.387 7.38388 101.378 7.79446 102.412 7.79446C103.445 7.79446 104.437 7.38388 105.167 6.65303C105.898 5.92218 106.309 4.93094 106.309 3.89736C106.309 2.86378 105.898 1.87254 105.167 1.14169C104.437 0.410841 103.445 0.000244141 102.412 0.000244141ZM102.412 7.12594C101.553 7.12594 100.729 6.7847 100.121 6.17728C99.5141 5.56986 99.1728 4.74601 99.1728 3.88699C99.1728 3.02796 99.5141 2.20413 100.121 1.59671C100.729 0.989288 101.553 0.648035 102.412 0.648035C103.271 0.648035 104.095 0.989288 104.702 1.59671C105.309 2.20413 105.651 3.02796 105.651 3.88699C105.651 4.31277 105.568 4.7345 105.406 5.12807C105.243 5.52163 105.005 5.87932 104.704 6.18063C104.403 6.48195 104.046 6.72098 103.652 6.88408C103.259 7.04717 102.838 7.13113 102.412 7.13113V7.12594Z" fill="#EA2D4E"/>
<path d="M15.065 107.348C14.5364 107.348 14.0065 107.348 13.4766 107.348C13.4068 107.343 13.3411 107.313 13.2919 107.263C13.2426 107.213 13.2129 107.147 13.2084 107.077C13.1994 106.725 13.1929 106.372 13.1929 106.021C13.1867 105.915 13.2031 105.809 13.2408 105.71C13.5842 105.003 13.4132 104.257 13.417 103.525C13.4177 103.471 13.3983 103.42 13.3628 103.38C13.3274 103.34 13.2783 103.315 13.2253 103.31C13.0504 103.294 12.8748 103.288 12.6993 103.29C12.6317 103.303 12.5689 103.334 12.5172 103.38C12.4655 103.425 12.4269 103.484 12.4052 103.549C12.3948 104.25 12.3054 104.95 12.584 105.636C12.7718 106.1 12.6915 106.611 12.6319 107.101C12.6229 107.183 12.5166 107.259 12.4467 107.329C12.4169 107.348 12.3812 107.357 12.3456 107.354C11.3566 107.354 10.3677 107.354 9.3787 107.354C9.29047 107.357 9.20446 107.326 9.13841 107.268C9.07235 107.209 9.0313 107.128 9.02371 107.04C9.01335 106.757 9.01466 106.476 9.00429 106.194C8.98493 105.946 9.04385 105.698 9.17273 105.485C9.31914 105.242 9.38949 104.96 9.37481 104.676C9.37481 103.229 9.37481 101.783 9.37481 100.338C9.37481 100.13 9.37483 99.8815 9.266 99.7235C8.98227 99.3076 9.00689 98.8567 9.00689 98.3994C9.00689 98.2582 9.00687 98.1169 9.01982 97.977C9.02047 97.9331 9.02995 97.8897 9.04769 97.8495C9.06544 97.8093 9.0911 97.7731 9.12313 97.743C9.15516 97.7129 9.19292 97.6895 9.23415 97.6743C9.27539 97.6591 9.31927 97.6523 9.36317 97.6544C10.3521 97.6544 11.3411 97.6544 12.33 97.6544C12.4185 97.6554 12.5029 97.6915 12.5648 97.7546C12.6267 97.8177 12.6611 97.9028 12.6604 97.9913C12.676 98.5885 12.7239 99.1793 12.4752 99.761C12.2925 100.189 12.3715 100.668 12.4207 101.12C12.4332 101.169 12.4574 101.214 12.4913 101.251C12.5252 101.288 12.5677 101.316 12.6151 101.333C12.8229 101.36 13.0332 101.366 13.2421 101.348C13.2753 101.34 13.3059 101.324 13.3315 101.302C13.357 101.279 13.3766 101.25 13.3886 101.219C13.4786 100.697 13.4747 100.164 13.3769 99.6444C13.1346 99.2985 13.1942 98.9021 13.1916 98.5173C13.1916 98.3061 13.2033 98.0949 13.2201 97.885C13.2292 97.7658 13.3289 97.7179 13.4261 97.6765C13.4594 97.6651 13.4946 97.6603 13.5297 97.6622C14.5546 97.6622 15.5781 97.6622 16.6029 97.6622C16.6468 97.662 16.6904 97.6707 16.731 97.6877C16.7715 97.7048 16.8082 97.7299 16.8388 97.7614C16.8694 97.793 16.8933 97.8305 16.9091 97.8715C16.9249 97.9126 16.9322 97.9564 16.9306 98.0003C16.9384 98.2465 16.9307 98.494 16.9423 98.7401C16.9718 99.0578 16.8963 99.3764 16.7272 99.647C16.6008 99.8612 16.5425 100.109 16.5601 100.357C16.5653 101.767 16.5705 103.178 16.5757 104.59C16.5557 104.943 16.639 105.295 16.8154 105.603C16.8942 105.759 16.935 105.932 16.9345 106.107C16.9527 106.388 16.941 106.672 16.9345 106.954C16.9394 107.007 16.9329 107.059 16.9158 107.109C16.8986 107.159 16.871 107.204 16.8348 107.243C16.7986 107.281 16.7547 107.311 16.706 107.331C16.6573 107.351 16.6049 107.36 16.5523 107.358C16.0574 107.358 15.5625 107.358 15.0689 107.358L15.065 107.348Z" fill="white" stroke="white" stroke-width="1.29558" stroke-miterlimit="10"/>
<path d="M22.3786 102.421C22.3786 101.714 22.3786 101.007 22.3786 100.301C22.3786 100.016 22.3526 99.7378 22.17 99.4968C22.1266 99.4415 22.0985 99.3759 22.0884 99.3064C22.0305 98.8157 22.0374 98.3195 22.1091 97.8307C22.1207 97.7983 22.1398 97.7691 22.1647 97.7455C22.1897 97.7219 22.2199 97.7044 22.2529 97.6947C22.3902 97.6669 22.53 97.6535 22.6701 97.6545C23.3775 97.6545 24.0848 97.6545 24.7922 97.648C24.9316 97.637 25.0694 97.6105 25.2029 97.569C25.3403 97.534 25.1887 97.6014 25.2483 97.4744C25.2742 97.4213 25.2807 97.3112 25.2483 97.2852C25.1187 97.1764 24.962 97.0909 24.8182 96.995C24.616 96.8494 24.4689 96.6399 24.4004 96.4004C24.332 96.1608 24.3464 95.9052 24.4411 95.6748C24.5209 95.4767 24.6639 95.3104 24.848 95.202C25.5851 94.7602 26.6099 95.2382 26.7369 96.0829C26.8078 96.5779 26.6914 97.0815 26.4104 97.4951C26.1947 97.8621 25.9075 98.182 25.5657 98.4357C25.4649 98.5062 25.3847 98.6023 25.3334 98.7141C25.2822 98.826 25.2617 98.9495 25.2742 99.0719C25.2742 99.9904 25.2742 100.909 25.2742 101.828C25.2742 102.675 25.2742 103.523 25.2742 104.371C25.2756 104.759 25.2321 105.147 25.1446 105.525C24.9076 106.529 24.2377 107.104 23.2933 107.37C22.2625 107.654 21.1732 107.647 20.1463 107.349C19.3689 107.133 18.7561 106.67 18.4322 105.889C18.3344 105.662 18.2774 105.42 18.2638 105.173C18.2496 104.855 18.2418 104.537 18.2405 104.219C18.2405 103.019 18.2405 101.818 18.2405 100.616C18.2405 100.228 18.2496 99.8388 17.9749 99.5111C17.9124 99.4253 17.8788 99.3218 17.879 99.2157C17.879 98.757 17.8881 98.2997 17.9075 97.8423C17.9075 97.7905 17.9879 97.7283 18.0449 97.6985C18.1091 97.6695 18.1791 97.6558 18.2495 97.6584C19.2394 97.6584 20.2305 97.6584 21.2203 97.6584C21.539 97.6584 21.6349 97.7724 21.6414 98.1248C21.6414 98.4072 21.6414 98.6897 21.6414 98.9721C21.6586 99.185 21.6019 99.3973 21.4807 99.5732C21.3341 99.7752 21.2601 100.021 21.2708 100.27C21.2708 101.754 21.2708 103.238 21.2708 104.721C21.2735 104.791 21.2813 104.861 21.2942 104.93C21.3134 105.007 21.348 105.079 21.3959 105.142C21.4438 105.205 21.5039 105.258 21.5728 105.297C21.6416 105.336 21.7176 105.36 21.7962 105.369C21.8748 105.378 21.9544 105.371 22.0301 105.348C22.1596 105.3 22.2969 105.228 22.3151 105.065C22.3479 104.821 22.3678 104.575 22.3747 104.329C22.3825 103.693 22.3747 103.057 22.3747 102.422L22.3786 102.421Z" fill="white" stroke="white" stroke-width="1.29558" stroke-miterlimit="10"/>
<path d="M84.0663 97.666C86.0278 97.6984 85.4759 97.3305 86.2144 99.1067C86.5111 99.8219 86.7806 100.549 87.0669 101.269C87.099 101.325 87.1433 101.372 87.1965 101.408C87.2587 101.459 87.3092 101.368 87.3105 101.178C87.3105 100.825 87.3299 100.472 87.3105 100.12C87.2994 99.9102 87.2593 99.7031 87.1913 99.5045C87.0034 98.9512 87.0825 98.3928 87.1265 97.8345C87.1265 97.7813 87.2146 97.7321 87.269 97.6893C87.3002 97.6734 87.3352 97.6666 87.3701 97.6699C88.2174 97.6699 89.0634 97.6699 89.9107 97.6699C89.9805 97.6746 90.0462 97.7041 90.0961 97.753C90.146 97.802 90.1768 97.8672 90.1828 97.9368C90.1919 98.2892 90.2048 98.6416 90.197 98.994C90.2012 99.1342 90.1662 99.2729 90.096 99.3943C89.8511 99.7338 89.8369 100.113 89.8369 100.503C89.8369 102.302 89.8369 104.101 89.8369 105.899C89.8369 106.288 89.8278 106.677 89.8187 107.065C89.8156 107.135 89.7878 107.202 89.7404 107.253C89.693 107.304 89.6289 107.337 89.5596 107.345C88.7486 107.345 87.9375 107.357 87.1252 107.345C87.0748 107.339 87.0264 107.322 86.9834 107.295C86.9404 107.268 86.9039 107.231 86.8765 107.189C86.7236 106.913 86.5914 106.624 86.4632 106.335C86.0654 105.428 85.6742 104.529 85.2725 103.63C85.2544 103.589 85.1533 103.583 85.0886 103.57C85.0743 103.57 85.0354 103.608 85.0354 103.628C85.0354 103.981 85.0108 104.334 85.0354 104.685C85.0434 104.896 85.0992 105.103 85.1987 105.289C85.3412 105.532 85.4079 105.812 85.3905 106.094C85.3801 106.41 85.3904 106.727 85.3762 107.045C85.3763 107.089 85.3671 107.133 85.349 107.173C85.3309 107.214 85.3045 107.25 85.2714 107.279C85.2383 107.308 85.1994 107.331 85.1571 107.344C85.1149 107.357 85.0703 107.361 85.0264 107.356C84.249 107.356 83.4717 107.356 82.6943 107.356C82.6241 107.353 82.5569 107.326 82.5051 107.278C82.4533 107.231 82.4202 107.166 82.4119 107.097C82.4002 106.815 82.3886 106.534 82.3873 106.252C82.3873 105.936 82.3743 105.625 82.579 105.345C82.7241 105.142 82.7189 104.877 82.7189 104.628V100.291C82.7283 100.008 82.6592 99.7275 82.5194 99.4811C82.4479 99.3633 82.4057 99.23 82.3963 99.0925C82.386 98.7038 82.3964 98.3151 82.4093 97.9264C82.417 97.8571 82.4498 97.7931 82.5017 97.7465C82.5535 97.6999 82.6207 97.674 82.6904 97.6738C83.1491 97.6583 83.6077 97.666 84.0663 97.666Z" fill="white" stroke="white" stroke-width="1.29558" stroke-miterlimit="10"/>
<path d="M36.6377 97.6584C36.9202 97.6584 37.2039 97.6584 37.4863 97.6584C38.2443 97.6649 38.1652 97.6079 38.4554 98.3477C38.8441 99.331 39.2146 100.32 39.6007 101.303C39.6201 101.353 39.7018 101.391 39.7627 101.412C39.8469 101.439 39.8728 101.388 39.8689 101.29C39.8417 100.625 39.9751 99.9451 39.6603 99.3116C39.5849 98.8243 39.5906 98.3279 39.6772 97.8424C39.6897 97.8107 39.7085 97.7818 39.7323 97.7573C39.7561 97.7329 39.7844 97.7134 39.8158 97.6999C39.8809 97.6727 39.9513 97.6603 40.0218 97.6636C40.7641 97.6636 41.5052 97.6572 42.2463 97.6636C42.635 97.6636 42.7114 97.7504 42.7192 98.1819C42.7192 98.4293 42.7192 98.6755 42.7192 98.9229C42.7387 99.1351 42.6877 99.3478 42.5741 99.528C42.4212 99.7673 42.3448 100.047 42.3551 100.331C42.346 100.577 42.3551 100.825 42.3551 101.071C42.3551 102.904 42.3551 104.737 42.3551 106.572C42.351 106.782 42.3306 106.992 42.2942 107.199C42.2852 107.252 42.2036 107.298 42.1491 107.339C42.1194 107.357 42.0852 107.365 42.0507 107.364C41.2733 107.364 40.496 107.37 39.7186 107.364C39.6298 107.362 39.5435 107.333 39.4719 107.281C39.4004 107.228 39.3471 107.154 39.3196 107.07C38.8972 106.102 38.4753 105.134 38.0538 104.164C37.9683 103.969 37.8763 103.775 37.7804 103.591C37.7726 103.574 37.7118 103.575 37.6794 103.583C37.647 103.591 37.6224 103.618 37.6224 103.639C37.6133 104.06 37.6042 104.482 37.6068 104.903C37.6015 105.01 37.6267 105.116 37.6794 105.209C38.0836 105.784 37.9126 106.43 37.9126 107.053C37.9082 107.141 37.8691 107.224 37.8037 107.283C37.7384 107.342 37.6522 107.373 37.5641 107.369C36.7867 107.369 36.0094 107.366 35.232 107.361C35.188 107.36 35.1445 107.351 35.1041 107.333C35.0638 107.316 35.0274 107.29 34.9971 107.258C34.9668 107.226 34.9432 107.188 34.9277 107.147C34.9122 107.106 34.9051 107.062 34.9068 107.018C34.9068 106.665 34.9068 106.312 34.9068 105.959C34.9017 105.782 34.957 105.608 35.0636 105.466C35.2246 105.231 35.3001 104.948 35.2774 104.665C35.2774 103.185 35.2774 101.704 35.2774 100.222C35.2774 100.01 35.2838 99.7832 35.1413 99.6148C34.9133 99.3479 34.899 99.0395 34.9055 98.7182C34.9055 98.4721 34.9055 98.2246 34.9198 97.9785C34.9214 97.9346 34.9319 97.8915 34.9506 97.8518C34.9693 97.8121 34.9959 97.7765 35.0287 97.7474C35.0615 97.7182 35.0998 97.696 35.1415 97.682C35.1831 97.6681 35.2271 97.6627 35.2709 97.6662C35.7295 97.6662 36.1881 97.6662 36.6468 97.6662L36.6377 97.6584Z" fill="white" stroke="white" stroke-width="1.29558" stroke-miterlimit="10"/>
<path d="M91.148 102.429C91.148 101.758 91.148 101.087 91.148 100.415C91.1517 100.097 91.1952 99.7809 91.2776 99.4735C91.3605 99.1287 91.5234 98.8083 91.7532 98.5382C91.9831 98.2681 92.2733 98.0559 92.6003 97.9188C92.9506 97.7463 93.3324 97.6471 93.7223 97.6273C94.2172 97.6144 94.7121 97.5937 95.2057 97.5911C96.2681 97.5911 97.2087 97.9707 98.0962 98.5135C98.1577 98.5487 98.2088 98.5997 98.2441 98.6612C98.2793 98.7227 98.2976 98.7924 98.297 98.8633C98.297 99.4632 98.3048 100.063 98.297 100.664C98.3017 100.708 98.2972 100.752 98.284 100.794C98.2707 100.836 98.2489 100.875 98.2199 100.908C98.191 100.941 98.1555 100.968 98.1157 100.986C98.0759 101.005 98.0326 101.015 97.9887 101.017C97.2113 101.022 96.434 101.022 95.6566 101.017C95.4519 101.017 95.3742 100.923 95.3496 100.68C95.3327 100.505 95.3314 100.327 95.3029 100.154C95.2801 100.033 95.2244 99.9203 95.1419 99.8289C95.0594 99.7374 94.9533 99.6705 94.8352 99.6355C94.6085 99.5979 94.317 99.8726 94.2768 100.169C94.2501 100.344 94.235 100.52 94.2315 100.697C94.2315 101.967 94.2315 103.239 94.2315 104.511C94.2341 104.652 94.2444 104.793 94.2626 104.933C94.2724 105.039 94.313 105.139 94.3794 105.222C94.4457 105.304 94.5348 105.366 94.6357 105.398C94.7582 105.418 94.8836 105.397 94.9938 105.34C95.104 105.284 95.1932 105.193 95.2485 105.082C95.3762 104.715 95.3889 104.317 95.2848 103.942C95.2731 103.888 95.1902 103.836 95.128 103.812C95.0625 103.787 95.0065 103.742 94.9682 103.683C94.9298 103.624 94.9109 103.555 94.9142 103.485C94.9142 103.061 94.9142 102.637 94.9259 102.215C94.9347 102.146 94.9677 102.082 95.0192 102.034C95.0706 101.987 95.1371 101.959 95.207 101.956C96.126 101.956 97.045 101.956 97.964 101.956C98.0081 101.955 98.0519 101.963 98.0927 101.98C98.1335 101.997 98.1705 102.021 98.2015 102.053C98.2325 102.084 98.2569 102.121 98.2731 102.162C98.2892 102.203 98.2969 102.247 98.2957 102.291C98.3022 103.245 98.3035 104.199 98.3048 105.152C98.3048 105.541 98.3022 105.929 98.297 106.318C98.2962 106.406 98.2718 106.493 98.2262 106.569C98.1806 106.644 98.1156 106.706 98.0379 106.748C97.795 106.892 97.5385 107.01 97.2722 107.103C96.009 107.509 94.7212 107.672 93.4023 107.428C93.1942 107.391 92.989 107.34 92.7882 107.274C92.0186 107.015 91.5561 106.47 91.3449 105.707C91.2168 105.265 91.1523 104.807 91.1532 104.348C91.161 103.711 91.1532 103.077 91.1532 102.44L91.148 102.429Z" fill="white" stroke="white" stroke-width="1.29558" stroke-miterlimit="10"/>
<path d="M43.722 102.434C43.722 101.798 43.722 101.163 43.722 100.528C43.718 100.281 43.7284 100.034 43.7531 99.7882C43.7893 99.3991 43.9264 99.0262 44.1509 98.7063C44.3754 98.3863 44.6795 98.1305 45.0331 97.9641C45.3757 97.7782 45.7535 97.6665 46.1421 97.6363C46.6357 97.6117 47.1306 97.5909 47.6243 97.5845C48.7203 97.5689 49.7036 97.9317 50.6157 98.5095C50.6589 98.5368 50.6959 98.5728 50.7245 98.6152C50.753 98.6576 50.7725 98.7054 50.7816 98.7557C50.7958 99.4255 50.7919 100.094 50.7894 100.764C50.7811 100.833 50.7478 100.897 50.6958 100.943C50.6438 100.989 50.5766 101.015 50.5069 101.015C49.7296 101.015 48.9522 101.015 48.1749 101.015C47.987 101.015 47.8821 100.886 47.86 100.669C47.838 100.453 47.8225 100.248 47.794 100.04C47.7765 99.9717 47.7485 99.9071 47.7111 99.8478C47.681 99.7938 47.639 99.7472 47.5883 99.7117C47.5377 99.6761 47.4795 99.6526 47.4184 99.6427C47.3573 99.6329 47.2948 99.637 47.2355 99.6548C47.1762 99.6726 47.1218 99.7036 47.0762 99.7455C46.9529 99.8674 46.8567 100.014 46.7938 100.176C46.7499 100.345 46.7329 100.52 46.7433 100.694C46.7433 101.964 46.7433 103.234 46.7433 104.504C46.7479 104.678 46.7678 104.852 46.8029 105.022C46.8339 105.191 47.0853 105.386 47.2705 105.411C47.4856 105.431 47.7888 105.205 47.8082 104.991C47.8277 104.676 47.8276 104.359 47.8238 104.044C47.8234 104.009 47.815 103.975 47.7992 103.944C47.7835 103.913 47.7609 103.886 47.7331 103.865C47.4157 103.723 47.3975 103.455 47.4079 103.163C47.4195 102.847 47.4221 102.53 47.4338 102.214C47.4453 102.145 47.4792 102.083 47.5301 102.036C47.581 101.989 47.646 101.96 47.7149 101.954C48.5985 101.945 49.4808 101.938 50.3631 101.936C50.6779 101.936 50.8062 102.066 50.8075 102.385C50.8075 103.656 50.8075 104.925 50.814 106.196C50.814 106.525 50.6585 106.714 50.3838 106.854C49.9396 107.073 49.4682 107.231 48.982 107.325C47.9463 107.567 46.872 107.596 45.8247 107.41C44.6898 107.195 44.0005 106.524 43.7919 105.398C43.7622 105.224 43.744 105.048 43.7375 104.872C43.7246 104.625 43.7194 104.378 43.7194 104.131C43.722 103.562 43.722 102.997 43.722 102.434Z" fill="white" stroke="white" stroke-width="1.29558" stroke-miterlimit="10"/>
<path d="M61.4248 102.452V104.573C61.4248 104.859 61.4442 105.151 61.6023 105.39C61.7536 105.63 61.8231 105.912 61.8005 106.195C61.7914 106.477 61.8005 106.761 61.7875 107.043C61.7879 107.088 61.779 107.132 61.7613 107.172C61.7437 107.213 61.7178 107.249 61.6852 107.279C61.6526 107.309 61.6141 107.332 61.5722 107.347C61.5302 107.361 61.4858 107.366 61.4416 107.362C60.4173 107.362 59.3916 107.362 58.3646 107.362C58.3206 107.364 58.2766 107.357 58.2355 107.341C58.1943 107.325 58.1568 107.301 58.1253 107.27C58.0937 107.239 58.0688 107.202 58.052 107.162C58.0353 107.121 58.027 107.077 58.0278 107.033C58.0213 106.714 58.0278 106.397 58.0213 106.078C58.0159 105.901 58.0686 105.727 58.1716 105.582C58.3194 105.381 58.3976 105.138 58.3944 104.889C58.3944 103.298 58.3918 101.708 58.3866 100.119C58.3866 99.989 58.2895 99.9074 58.2014 99.9436C58.1133 99.9799 58.0148 100.042 58.0019 100.159C57.9827 100.298 57.9706 100.439 57.9656 100.58C57.9591 100.862 57.9656 101.146 57.9656 101.428C57.9656 101.533 57.9539 101.64 57.9462 101.745C57.9363 101.814 57.9037 101.878 57.8535 101.927C57.8033 101.975 57.7384 102.006 57.6689 102.014C57.174 102.024 56.6791 102.035 56.1841 102.032C55.8693 102.032 55.7372 101.903 55.7359 101.579C55.7307 100.413 55.7307 99.2466 55.7359 98.0806C55.7359 97.8215 55.8655 97.6738 56.1051 97.666C56.2464 97.666 56.3876 97.666 56.5301 97.666H63.3241C63.5003 97.666 63.6765 97.6829 63.8527 97.6932C63.905 97.6993 63.9542 97.7211 63.9938 97.7558C64.0334 97.7905 64.0614 97.8365 64.0743 97.8876C64.1026 97.99 64.1139 98.0963 64.1079 98.2024C64.1079 99.2967 64.1079 100.392 64.1079 101.488C64.117 101.594 64.1038 101.7 64.0691 101.8C64.0289 101.884 63.9395 101.991 63.8566 102C63.2607 102.077 62.6571 102.074 62.0622 101.989C62.0293 101.977 61.9994 101.958 61.9748 101.933C61.9502 101.908 61.9313 101.877 61.9197 101.844C61.8878 101.744 61.8721 101.639 61.8731 101.533C61.8731 101.215 61.8731 100.897 61.8653 100.578C61.8653 100.439 61.8394 100.299 61.8225 100.159C61.8122 100.067 61.6645 99.9644 61.5945 100.006C61.544 100.037 61.4753 100.085 61.4649 100.135C61.4393 100.309 61.4259 100.484 61.4248 100.66C61.4248 101.261 61.4248 101.861 61.4248 102.462V102.452Z" fill="white" stroke="white" stroke-width="1.29558" stroke-miterlimit="10"/>
<path d="M33.3016 95.5271C33.1292 95.5591 32.9673 95.633 32.83 95.7422C32.7098 95.8457 32.6141 95.9747 32.5497 96.1197C32.4853 96.2647 32.454 96.4222 32.4578 96.5808C32.4616 96.7394 32.5006 96.8952 32.5719 97.037C32.6432 97.1787 32.7451 97.3029 32.8702 97.4005C33.018 97.4959 33.1726 97.5803 33.3327 97.6531C33.4286 97.7037 33.4467 97.7931 33.391 97.9123C33.2614 98.1714 33.1228 98.2478 32.9078 98.1079C32.4554 97.8323 31.953 97.6492 31.4295 97.5689C30.4511 97.4033 29.4493 97.4376 28.4846 97.67C28.2128 97.7379 27.9513 97.8421 27.7073 97.9796C27.4062 98.1313 27.1454 98.3523 26.9463 98.6243C26.7472 98.8964 26.6155 99.2118 26.562 99.5447C26.4976 99.9271 26.4616 100.314 26.4545 100.702C26.4363 101.265 26.4545 101.83 26.4545 102.394C26.4545 102.957 26.4402 103.523 26.4545 104.087C26.4616 104.51 26.5001 104.932 26.5698 105.349C26.6328 105.734 26.7915 106.098 27.0314 106.406C27.2714 106.714 27.5848 106.957 27.9431 107.112C28.1664 107.219 28.4011 107.301 28.6427 107.356C29.6825 107.579 30.7577 107.579 31.7974 107.356C32.0385 107.3 32.2723 107.216 32.4945 107.107C32.7527 106.99 32.9831 106.819 33.1707 106.607C33.3582 106.394 33.4987 106.144 33.5827 105.874C33.7004 105.54 33.7647 105.19 33.7732 104.837C33.7732 103.282 33.781 101.728 33.7641 100.181C33.7393 99.7961 33.6913 99.4132 33.6203 99.0342C33.8095 98.6455 34.1994 98.4279 34.4314 98.0716C34.6579 97.7558 34.8034 97.3892 34.855 97.0041C34.947 96.0259 34.3044 95.3613 33.3016 95.5271ZM30.7273 104.152C30.7146 104.433 30.683 104.714 30.6327 104.991C30.6135 105.096 30.56 105.191 30.4807 105.261C30.4013 105.331 30.3007 105.373 30.1948 105.38C30.088 105.381 29.9831 105.352 29.8917 105.297C29.8002 105.242 29.7258 105.163 29.6766 105.068C29.6303 104.973 29.5972 104.872 29.5781 104.768C29.5615 104.593 29.5545 104.416 29.5574 104.24C29.5574 103.074 29.5574 101.908 29.5574 100.742C29.5513 100.53 29.5683 100.319 29.6079 100.111C29.6315 100.007 29.6825 99.9113 29.7557 99.8338C29.8288 99.7563 29.9214 99.6999 30.0238 99.6704C30.3127 99.5732 30.6405 99.7416 30.6716 100.023C30.6983 100.232 30.7135 100.443 30.7169 100.654C30.7169 101.22 30.7169 101.785 30.7169 102.351C30.7312 102.951 30.7415 103.552 30.7273 104.152Z" fill="white" stroke="white" stroke-width="1.29558" stroke-miterlimit="10"/>
<path d="M72.8051 105.883C72.7945 105.777 72.7531 105.677 72.686 105.595C72.4839 105.323 72.4515 105.013 72.4515 104.688C72.4515 104.363 72.4515 104.052 72.432 103.735C72.4262 103.558 72.3809 103.385 72.2996 103.228C72.2182 103.071 72.1028 102.934 71.9617 102.828C71.8788 102.763 71.7829 102.715 71.7026 102.652C71.6819 102.638 71.6645 102.619 71.6517 102.598C71.639 102.577 71.6312 102.552 71.629 102.528C71.6268 102.503 71.6301 102.478 71.6388 102.454C71.6475 102.431 71.6614 102.41 71.6793 102.392C72.1029 102.105 72.4152 101.745 72.5357 101.226C72.6733 100.675 72.6866 100.1 72.5745 99.5422C72.5046 99.156 72.3282 98.7969 72.0652 98.5055C71.8021 98.2141 71.463 98.002 71.0859 97.8929C70.6159 97.7329 70.1223 97.6528 69.6258 97.6558C68.9534 97.6636 68.281 97.6558 67.6086 97.6558H67.1849C66.5825 97.6558 65.9813 97.6558 65.3802 97.6623C65.121 97.6623 65.0161 97.7919 65.0109 98.0653C65.0045 98.3827 65.0109 98.7014 65.0045 99.0188C64.9794 99.2667 65.0525 99.5146 65.2079 99.7093C65.336 99.8818 65.3968 100.095 65.3789 100.309C65.3789 101.758 65.3789 103.206 65.3789 104.655C65.3942 104.939 65.3267 105.222 65.1845 105.469C65.0522 105.68 64.9897 105.926 65.0058 106.174C65.0122 106.42 65.0058 106.668 65.0058 106.915C65.0058 106.952 65.0058 106.987 65.0058 107.022C65.0049 107.065 65.0128 107.109 65.0289 107.149C65.0451 107.19 65.0692 107.227 65.0999 107.258C65.1305 107.289 65.1671 107.314 65.2075 107.331C65.2478 107.347 65.2911 107.356 65.3348 107.356C66.3609 107.356 67.387 107.356 68.4131 107.356C68.4483 107.359 68.4836 107.352 68.5142 107.334C68.5897 107.266 68.6607 107.193 68.7267 107.116C68.746 107.086 68.7551 107.05 68.7526 107.014C68.7396 106.461 68.8951 105.878 68.4753 105.392C68.4552 105.362 68.4435 105.328 68.4416 105.292C68.3795 104.766 68.3354 104.239 68.4494 103.715C68.4661 103.688 68.4893 103.666 68.5169 103.65C68.5445 103.634 68.5756 103.625 68.6075 103.625C69.0311 103.667 69.2876 103.884 69.3265 104.265C69.3589 104.579 69.355 104.899 69.3706 105.216C69.3965 105.78 69.4172 106.345 69.4561 106.909C69.4781 107.237 69.6102 107.36 69.9173 107.364C70.4476 107.371 70.9784 107.371 71.5096 107.364C71.862 107.364 72.2169 107.364 72.568 107.331C72.6484 107.325 72.7805 107.216 72.7857 107.147C72.8065 106.727 72.8116 106.305 72.8051 105.883ZM69.4949 101.05C69.4782 101.153 69.4396 101.251 69.3819 101.338C69.3241 101.425 69.2485 101.498 69.16 101.554C69.0716 101.609 68.9724 101.644 68.8691 101.658C68.7657 101.672 68.6606 101.663 68.5608 101.633C68.5306 101.623 68.5031 101.606 68.4806 101.584C68.4581 101.561 68.4412 101.534 68.4313 101.504C68.3976 101.23 68.382 100.954 68.3795 100.922C68.3795 100.505 68.3795 100.331 68.3795 100.158C68.3795 99.7327 68.5556 99.7197 68.9223 99.7754C69.044 99.7903 69.1584 99.8413 69.2508 99.9219C69.3432 100.003 69.4093 100.109 69.4405 100.228C69.5165 100.495 69.535 100.775 69.4949 101.05Z" fill="white" stroke="white" stroke-width="1.29558" stroke-miterlimit="10"/>
<path d="M81.5672 105.81C81.5629 105.74 81.5386 105.672 81.4972 105.615C81.1085 105.121 81.0347 104.521 80.9233 103.93C80.5994 102.233 80.275 100.537 79.9503 98.8413C79.8907 98.5291 79.8298 98.2182 79.7624 97.9085C79.7428 97.8409 79.7028 97.7809 79.6479 97.7369C79.5929 97.6928 79.5257 97.6668 79.4554 97.6624C78.1849 97.6624 76.9135 97.6624 75.6412 97.6624C75.5721 97.6706 75.5072 97.6999 75.4553 97.7462C75.4034 97.7926 75.3669 97.8537 75.351 97.9215C75.2991 98.1262 75.2473 98.3322 75.2098 98.5395C74.8613 100.447 74.5114 102.354 74.1733 104.263C74.0995 104.683 74.0438 105.096 73.795 105.462C73.7363 105.55 73.7027 105.652 73.6978 105.757C73.6978 106.214 73.7056 106.672 73.716 107.129C73.716 107.259 73.83 107.295 73.9194 107.343C73.9529 107.355 73.9888 107.36 74.0243 107.356C74.8716 107.356 75.7194 107.356 76.5675 107.356C76.6367 107.356 76.7049 107.34 76.7671 107.309C76.8241 107.278 76.8966 107.221 76.9044 107.168C76.9368 106.926 76.9536 106.68 76.964 106.435C76.9821 106.046 76.973 105.657 76.7191 105.324C76.6802 105.274 76.688 105.188 76.6725 105.12C76.6661 105.086 76.6666 105.051 76.6738 105.018C76.681 104.984 76.6949 104.952 76.7145 104.924C76.7342 104.896 76.7593 104.872 76.7883 104.853C76.8173 104.835 76.8497 104.822 76.8836 104.817C77.1998 104.817 77.5172 104.807 77.8346 104.817C77.8782 104.817 77.9209 104.829 77.9587 104.851C77.9966 104.872 78.0283 104.903 78.0511 104.941C78.0738 104.978 78.0868 105.02 78.0888 105.064C78.0908 105.107 78.0818 105.151 78.0626 105.19C77.9793 105.344 77.9074 105.505 77.8475 105.67C77.7263 106.181 77.7263 106.714 77.8475 107.225C78.1961 107.484 78.5977 107.323 78.9734 107.355C79.2183 107.377 79.4683 107.355 79.7158 107.355C80.1395 107.355 80.5631 107.355 80.9867 107.355C81.1262 107.354 81.2652 107.338 81.4013 107.308C81.4337 107.297 81.4631 107.278 81.4874 107.254C81.5116 107.23 81.53 107.2 81.5412 107.168C81.6105 106.719 81.6192 106.262 81.5672 105.81ZM77.319 102.928C77.284 102.928 77.249 102.928 77.214 102.921C77.1705 102.92 77.1277 102.909 77.0885 102.89C77.0493 102.871 77.0146 102.844 76.9866 102.811C76.9586 102.777 76.9379 102.738 76.926 102.696C76.9141 102.655 76.9111 102.611 76.9173 102.567C77.0106 102.013 77.0987 101.458 77.1998 100.905C77.2101 100.851 77.284 100.803 77.3371 100.763C77.42 100.697 77.4667 100.724 77.4796 100.829C77.5664 101.385 77.6636 101.938 77.7387 102.494C77.7957 102.807 77.6532 102.937 77.319 102.928Z" fill="white" stroke="white" stroke-width="1.29558" stroke-miterlimit="10"/>
<path d="M8.29951 100.134C8.29265 99.9234 8.25823 99.7143 8.19715 99.5123C7.94711 98.6586 7.33039 98.1623 6.52584 97.8773C6.12792 97.7289 5.70678 97.6526 5.2821 97.6519C4.61099 97.6623 3.93987 97.6519 3.26876 97.6519C2.59765 97.6519 1.92653 97.6519 1.25542 97.6519C1.11523 97.6511 0.975358 97.6654 0.838249 97.6946C0.805773 97.7057 0.776283 97.7241 0.752024 97.7483C0.727765 97.7726 0.709375 97.8021 0.698316 97.8346C0.667068 97.9718 0.653163 98.1124 0.65688 98.253C0.66854 98.8063 0.545452 99.3802 0.940605 99.8738C1.01704 99.9697 1.01316 100.145 1.01316 100.283C1.01835 101.764 1.01835 103.245 1.01316 104.727C1.02314 105.011 0.93936 105.291 0.774766 105.523C0.700431 105.639 0.660057 105.773 0.658177 105.911C0.647812 106.3 0.658158 106.689 0.671114 107.077C0.675804 107.147 0.706123 107.213 0.756294 107.263C0.806466 107.312 0.872997 107.341 0.943198 107.344C2.00212 107.344 3.06104 107.344 4.11997 107.344C4.18924 107.34 4.25489 107.312 4.3057 107.265C4.35651 107.217 4.38932 107.154 4.3985 107.085C4.40887 106.696 4.42313 106.308 4.41406 105.919C4.40103 105.78 4.36604 105.644 4.31041 105.516C4.0215 104.723 4.09145 104.622 4.94912 104.609C5.12662 104.609 5.30283 104.603 5.47903 104.609C5.86841 104.608 6.25538 104.548 6.62689 104.432C7.39517 104.217 7.93414 103.751 8.15698 102.969C8.23012 102.734 8.27364 102.491 8.28654 102.246C8.31375 101.545 8.31117 100.839 8.29951 100.134ZM5.13049 102.054C5.08385 102.403 4.68225 102.615 4.3143 102.508C4.26316 102.492 4.21846 102.46 4.18693 102.417C4.15539 102.374 4.13872 102.322 4.13939 102.268C4.12513 101.916 4.13939 101.563 4.13939 101.21H4.14717C4.14717 100.821 4.13552 100.432 4.15625 100.044C4.16961 99.9945 4.19492 99.9495 4.22998 99.9126C4.26503 99.8757 4.30869 99.8482 4.35703 99.8324C4.72239 99.765 5.10848 100.031 5.14346 100.362C5.20609 100.925 5.20173 101.493 5.13049 102.054Z" fill="white" stroke="white" stroke-width="1.29558" stroke-miterlimit="10"/>
<path d="M15.065 107.425C14.5364 107.425 14.0065 107.425 13.4766 107.425C13.4069 107.419 13.3414 107.389 13.2922 107.339C13.2429 107.289 13.2132 107.224 13.2084 107.154C13.1994 106.801 13.1929 106.449 13.1929 106.097C13.1868 105.991 13.2032 105.886 13.2408 105.787C13.5842 105.08 13.4132 104.333 13.417 103.6C13.4171 103.547 13.3975 103.496 13.3622 103.456C13.3268 103.416 13.2781 103.391 13.2253 103.385C13.0504 103.371 12.8742 103.364 12.6993 103.365C12.6317 103.379 12.5689 103.41 12.5172 103.455C12.4655 103.501 12.4269 103.559 12.4052 103.625C12.3948 104.325 12.3054 105.024 12.584 105.712C12.7718 106.176 12.6915 106.686 12.6319 107.176C12.6229 107.259 12.5166 107.333 12.4467 107.404C12.417 107.424 12.3811 107.432 12.3456 107.428C11.3566 107.428 10.3677 107.428 9.3787 107.428C9.29055 107.431 9.20471 107.4 9.13872 107.341C9.07274 107.283 9.0316 107.201 9.02371 107.114C9.01335 106.831 9.01466 106.549 9.00429 106.268C8.98493 106.02 9.04385 105.772 9.17273 105.559C9.31914 105.316 9.38949 105.034 9.37481 104.75C9.37481 103.303 9.37481 101.857 9.37481 100.41C9.37481 100.203 9.37483 99.9555 9.266 99.7974C8.98227 99.3816 9.00689 98.9307 9.00689 98.4734C9.00689 98.3321 9.00687 98.1909 9.01982 98.0497C9.02064 98.0059 9.03025 97.9626 9.04807 97.9226C9.06589 97.8825 9.09159 97.8464 9.1236 97.8165C9.15562 97.7865 9.19329 97.7633 9.23444 97.7482C9.27559 97.733 9.31938 97.7263 9.36317 97.7284C10.3521 97.7284 11.3411 97.7284 12.33 97.7284C12.4185 97.7294 12.5029 97.7654 12.5648 97.8286C12.6267 97.8917 12.6611 97.9768 12.6604 98.0653C12.676 98.6625 12.7239 99.2533 12.4752 99.835C12.2925 100.263 12.3715 100.742 12.4207 101.194C12.4334 101.243 12.4577 101.287 12.4916 101.324C12.5254 101.361 12.5678 101.39 12.6151 101.407C12.8229 101.434 13.0332 101.439 13.2421 101.421C13.2755 101.413 13.3063 101.397 13.3319 101.375C13.3575 101.352 13.377 101.323 13.3886 101.291C13.4786 100.77 13.4747 100.237 13.3769 99.7171C13.1346 99.3712 13.1942 98.9747 13.1916 98.59C13.1916 98.3788 13.2033 98.1676 13.2201 97.9577C13.2292 97.8385 13.3289 97.7893 13.4261 97.7491C13.4594 97.7378 13.4946 97.733 13.5297 97.7349C14.5546 97.7349 15.5781 97.7349 16.6029 97.7349C16.6469 97.7345 16.6906 97.7431 16.7312 97.76C16.7718 97.777 16.8086 97.8021 16.8392 97.8337C16.8699 97.8653 16.8938 97.9028 16.9095 97.944C16.9252 97.9851 16.9324 98.029 16.9306 98.073C16.9384 98.3192 16.9307 98.5666 16.9423 98.8128C16.972 99.1305 16.8964 99.4492 16.7272 99.7197C16.6007 99.9344 16.5425 100.182 16.5601 100.431C16.5653 101.841 16.5705 103.252 16.5757 104.664C16.5557 105.017 16.639 105.369 16.8154 105.677C16.8942 105.833 16.935 106.006 16.9345 106.181C16.9527 106.462 16.941 106.746 16.9345 107.027C16.9396 107.079 16.9333 107.132 16.9162 107.182C16.8991 107.232 16.8715 107.278 16.8353 107.316C16.7991 107.355 16.7552 107.385 16.7064 107.405C16.6576 107.425 16.6051 107.434 16.5523 107.432C16.0574 107.432 15.5625 107.432 15.0689 107.432L15.065 107.425Z" fill="#0D623E"/>
<path d="M22.3786 102.496C22.3786 101.79 22.3786 101.084 22.3786 100.378C22.3786 100.093 22.3526 99.8142 22.17 99.5732C22.1269 99.5178 22.0988 99.4522 22.0884 99.3828C22.0305 98.8921 22.0374 98.396 22.1091 97.9071C22.1205 97.8746 22.1395 97.8453 22.1645 97.8217C22.1895 97.798 22.2198 97.7807 22.2529 97.7711C22.3901 97.7427 22.53 97.7292 22.6701 97.7309C23.3775 97.7309 24.0848 97.7309 24.7922 97.7231C24.9318 97.7134 25.0697 97.6868 25.2029 97.6441C25.3403 97.6104 25.1887 97.6778 25.2483 97.5508C25.2742 97.4977 25.2807 97.3876 25.2483 97.3617C25.1187 97.2528 24.962 97.1673 24.8182 97.0702C24.6159 96.9249 24.4687 96.7157 24.4003 96.4763C24.3318 96.2369 24.3462 95.9814 24.4411 95.7513C24.5206 95.5529 24.6637 95.3866 24.848 95.2784C25.5851 94.8366 26.6099 95.3146 26.7369 96.1594C26.8078 96.6543 26.6914 97.1579 26.4104 97.5715C26.1947 97.9385 25.9075 98.2584 25.5657 98.5121C25.4648 98.5825 25.3845 98.6786 25.3332 98.7905C25.282 98.9023 25.2616 99.0259 25.2742 99.1483C25.2742 100.067 25.2742 100.985 25.2742 101.904C25.2742 102.751 25.2742 103.599 25.2742 104.447C25.2756 104.836 25.2321 105.223 25.1446 105.602C24.9076 106.606 24.2377 107.181 23.2933 107.446C22.2624 107.73 21.1731 107.723 20.1463 107.424C19.3689 107.209 18.7561 106.746 18.4322 105.966C18.3343 105.738 18.2773 105.495 18.2638 105.248C18.25 104.93 18.2422 104.613 18.2405 104.296C18.2405 103.094 18.2405 101.893 18.2405 100.693C18.2405 100.304 18.2496 99.9153 17.9749 99.5875C17.9124 99.5017 17.8788 99.3982 17.879 99.2921C17.879 98.8334 17.8881 98.3761 17.9075 97.9188C17.9075 97.8669 17.9879 97.8048 18.0449 97.7737C18.1092 97.745 18.1792 97.7317 18.2495 97.7348C19.2394 97.7348 20.2305 97.7348 21.2203 97.7348C21.539 97.7348 21.6349 97.8488 21.6414 98.2012C21.6414 98.4836 21.6414 98.7661 21.6414 99.0485C21.6586 99.2614 21.6019 99.4737 21.4807 99.6497C21.3337 99.8514 21.2597 100.097 21.2708 100.347C21.2708 101.83 21.2708 103.313 21.2708 104.797C21.2735 104.867 21.2813 104.938 21.2942 105.007C21.3134 105.084 21.348 105.156 21.3959 105.219C21.4438 105.282 21.5039 105.334 21.5728 105.373C21.6416 105.412 21.7176 105.437 21.7962 105.445C21.8748 105.454 21.9544 105.447 22.0301 105.424C22.1596 105.376 22.2969 105.305 22.3151 105.142C22.3478 104.898 22.3677 104.652 22.3747 104.406C22.3825 103.77 22.3747 103.133 22.3747 102.497L22.3786 102.496Z" fill="#0D623E"/>
<path d="M84.0663 97.7424C86.0278 97.7748 85.4759 97.4069 86.2144 99.1831C86.5111 99.8983 86.7806 100.625 87.0669 101.345C87.099 101.401 87.1433 101.448 87.1965 101.484C87.2587 101.535 87.3092 101.444 87.3105 101.253C87.3105 100.901 87.3299 100.547 87.3105 100.196C87.2995 99.9866 87.2594 99.7795 87.1913 99.5809C87.0034 99.0277 87.0825 98.4693 87.1265 97.9109C87.1265 97.8578 87.2146 97.8072 87.269 97.7658C87.3002 97.7498 87.3352 97.7431 87.3701 97.7463C88.2174 97.7463 89.0634 97.7463 89.9107 97.7463C89.9805 97.751 90.0462 97.7805 90.0961 97.8295C90.146 97.8784 90.1768 97.9436 90.1828 98.0132C90.1919 98.3656 90.2048 98.718 90.197 99.0691C90.2012 99.2098 90.1662 99.3488 90.096 99.4707C89.8511 99.8102 89.8369 100.188 89.8369 100.58C89.8369 102.378 89.8369 104.177 89.8369 105.976C89.8369 106.365 89.8278 106.753 89.8187 107.142C89.8156 107.212 89.7878 107.278 89.7404 107.329C89.693 107.38 89.6289 107.413 89.5596 107.422C88.7486 107.422 87.9375 107.433 87.1252 107.422C87.0749 107.415 87.0265 107.398 86.9836 107.371C86.9406 107.344 86.9041 107.308 86.8765 107.265C86.7236 106.989 86.5914 106.7 86.4632 106.411C86.0654 105.504 85.6742 104.605 85.2725 103.705C85.2544 103.666 85.1533 103.658 85.0886 103.646C85.0743 103.646 85.0354 103.684 85.0354 103.705C85.0354 104.057 85.0108 104.411 85.0354 104.761C85.0434 104.972 85.0992 105.179 85.1987 105.366C85.3413 105.609 85.4081 105.889 85.3905 106.17C85.3801 106.486 85.3904 106.804 85.3762 107.121C85.3763 107.165 85.3671 107.209 85.349 107.25C85.3309 107.29 85.3045 107.326 85.2714 107.355C85.2383 107.385 85.1994 107.407 85.1571 107.42C85.1149 107.433 85.0703 107.437 85.0264 107.432C84.249 107.432 83.4717 107.432 82.6943 107.432C82.6241 107.43 82.5569 107.402 82.5051 107.355C82.4533 107.307 82.4202 107.243 82.4119 107.173C82.4002 106.892 82.3886 106.609 82.3873 106.328C82.3873 106.012 82.3743 105.701 82.579 105.421C82.7241 105.218 82.7189 104.954 82.7189 104.705V100.367C82.7285 100.084 82.6594 99.8039 82.5194 99.5576C82.4479 99.4397 82.4057 99.3064 82.3963 99.1689C82.386 98.7802 82.3964 98.3915 82.4093 98.0029C82.417 97.9336 82.4498 97.8695 82.5017 97.8229C82.5535 97.7763 82.6207 97.7504 82.6904 97.7502C83.1491 97.7399 83.6077 97.7424 84.0663 97.7424Z" fill="#0D623E"/>
<path d="M36.6377 97.7283C36.9202 97.7283 37.2039 97.7283 37.4863 97.7283C38.2443 97.7347 38.1652 97.6777 38.4554 98.4175C38.8441 99.4009 39.2146 100.389 39.6007 101.373C39.6201 101.423 39.7018 101.461 39.7627 101.48C39.8469 101.509 39.8728 101.458 39.8689 101.358C39.8417 100.695 39.9751 100.015 39.6603 99.3814C39.5849 98.8941 39.5906 98.3977 39.6772 97.9122C39.6897 97.8805 39.7085 97.8516 39.7323 97.8272C39.7561 97.8027 39.7844 97.7832 39.8158 97.7697C39.8808 97.7419 39.9512 97.7295 40.0218 97.7335C40.7641 97.7335 41.5052 97.7335 42.2463 97.7335C42.635 97.7335 42.7114 97.819 42.7192 98.2517C42.7192 98.4978 42.7192 98.7453 42.7192 98.9915C42.7389 99.204 42.6879 99.4172 42.5741 99.5978C42.4212 99.8366 42.3448 100.116 42.3551 100.4C42.346 100.647 42.3551 100.893 42.3551 101.141C42.3551 102.975 42.3551 104.808 42.3551 106.642C42.351 106.852 42.3307 107.061 42.2942 107.268C42.2852 107.322 42.2036 107.367 42.1491 107.408C42.1198 107.426 42.0854 107.435 42.0507 107.433C41.2733 107.433 40.496 107.433 39.7186 107.433C39.6298 107.433 39.5435 107.404 39.4719 107.351C39.4003 107.299 39.347 107.225 39.3196 107.141L38.0538 104.233C37.9683 104.04 37.8763 103.845 37.7804 103.662C37.7726 103.645 37.7118 103.645 37.6794 103.653C37.647 103.661 37.6224 103.689 37.6224 103.71C37.6133 104.131 37.6042 104.553 37.6068 104.974C37.6015 105.081 37.6267 105.186 37.6794 105.279C38.0836 105.855 37.9126 106.501 37.9126 107.124C37.9106 107.167 37.9 107.21 37.8813 107.25C37.8627 107.289 37.8364 107.325 37.804 107.354C37.7716 107.383 37.7337 107.406 37.6925 107.42C37.6513 107.435 37.6077 107.441 37.5641 107.439C36.7867 107.439 36.0094 107.436 35.232 107.432C35.1878 107.432 35.1443 107.422 35.1038 107.404C35.0634 107.386 35.0269 107.361 34.9966 107.329C34.9663 107.296 34.9427 107.259 34.9273 107.217C34.9119 107.176 34.9049 107.132 34.9068 107.088C34.9068 106.735 34.9068 106.383 34.9068 106.03C34.902 105.852 34.9572 105.678 35.0636 105.535C35.2476 105.298 35.2774 105.017 35.2774 104.736C35.2774 103.256 35.2774 101.774 35.2774 100.292C35.2774 100.081 35.2838 99.8543 35.1413 99.6859C34.9133 99.419 34.899 99.1107 34.9055 98.7894C34.9055 98.5432 34.9055 98.2957 34.9198 98.0496C34.9214 98.0057 34.9319 97.9626 34.9506 97.9229C34.9693 97.8832 34.9959 97.8477 35.0287 97.8185C35.0615 97.7893 35.0998 97.7671 35.1415 97.7531C35.1831 97.7392 35.2271 97.7338 35.2709 97.7373C35.7295 97.7373 36.1881 97.7373 36.6468 97.7373L36.6377 97.7283Z" fill="#0D623E"/>
<path d="M91.148 102.505C91.148 101.834 91.148 101.163 91.148 100.492C91.1516 100.174 91.1951 99.8573 91.2776 99.55C91.3605 99.2052 91.5234 98.8847 91.7532 98.6146C91.9831 98.3445 92.2733 98.1323 92.6003 97.9953C92.9506 97.8227 93.3324 97.7236 93.7223 97.7038C94.2172 97.6908 94.7121 97.6688 95.2057 97.6675C96.2681 97.6675 97.2087 98.0471 98.0962 98.5899C98.1577 98.6251 98.2088 98.6761 98.2441 98.7376C98.2793 98.7991 98.2976 98.8689 98.297 98.9397C98.297 99.5396 98.3048 100.139 98.297 100.739C98.3017 100.783 98.2972 100.827 98.284 100.869C98.2707 100.911 98.2489 100.95 98.2199 100.983C98.191 101.016 98.1555 101.043 98.1157 101.062C98.0759 101.08 98.0326 101.091 97.9887 101.092C97.2113 101.098 96.434 101.098 95.6566 101.092C95.4519 101.092 95.3742 100.998 95.3496 100.755C95.3327 100.579 95.3314 100.401 95.3029 100.228C95.2801 100.107 95.2244 99.9941 95.1419 99.9027C95.0594 99.8113 94.9533 99.7443 94.8352 99.7093C94.6085 99.6717 94.317 99.9451 94.2768 100.243C94.2501 100.418 94.235 100.594 94.2315 100.77C94.2315 102.042 94.2315 103.313 94.2315 104.585C94.2341 104.726 94.2444 104.867 94.2626 105.007C94.2724 105.112 94.313 105.213 94.3794 105.295C94.4457 105.378 94.5348 105.44 94.6357 105.472C94.7582 105.491 94.8836 105.471 94.9938 105.414C95.104 105.357 95.1932 105.267 95.2485 105.156C95.3762 104.788 95.3889 104.391 95.2848 104.016C95.2731 103.961 95.1902 103.91 95.128 103.886C95.0623 103.861 95.0063 103.816 94.9679 103.757C94.9295 103.698 94.9107 103.629 94.9142 103.558C94.9142 103.136 94.9142 102.712 94.9259 102.29C94.9347 102.221 94.9677 102.157 95.0192 102.109C95.0706 102.062 95.1371 102.034 95.207 102.031C96.126 102.031 97.045 102.031 97.964 102.031C98.0082 102.03 98.052 102.039 98.0928 102.056C98.1336 102.072 98.1706 102.097 98.2016 102.129C98.2326 102.16 98.2569 102.198 98.2731 102.239C98.2892 102.28 98.2969 102.324 98.2957 102.368C98.3022 103.321 98.3035 104.275 98.3048 105.228C98.3048 105.617 98.3022 106.006 98.297 106.395C98.2965 106.483 98.2721 106.57 98.2266 106.646C98.181 106.722 98.1158 106.784 98.0379 106.826C97.795 106.969 97.5385 107.088 97.2722 107.181C96.009 107.586 94.7212 107.75 93.4023 107.506C93.1942 107.469 92.989 107.418 92.7882 107.352C92.0186 107.093 91.5561 106.546 91.3449 105.784C91.2169 105.343 91.1524 104.885 91.1532 104.425C91.161 103.789 91.1532 103.153 91.1532 102.518L91.148 102.505Z" fill="#0D623E"/>
<path d="M43.722 102.51C43.722 101.874 43.722 101.239 43.722 100.605C43.718 100.358 43.7284 100.111 43.7531 99.8647C43.7892 99.4756 43.9263 99.1026 44.1508 98.7826C44.3753 98.4627 44.6794 98.2069 45.0331 98.0406C45.3757 97.8547 45.7535 97.743 46.1421 97.7128C46.6357 97.6882 47.1306 97.6674 47.6243 97.661C48.7203 97.6441 49.7036 98.0069 50.6157 98.586C50.6589 98.6133 50.6959 98.6493 50.7245 98.6917C50.753 98.7341 50.7725 98.7819 50.7816 98.8322C50.7958 99.5007 50.7919 100.171 50.7894 100.84C50.7811 100.909 50.7478 100.973 50.6957 101.019C50.6436 101.065 50.5765 101.091 50.5069 101.09C49.7296 101.09 48.9522 101.09 48.1749 101.09C47.987 101.09 47.8821 100.961 47.86 100.746C47.838 100.531 47.8225 100.325 47.794 100.116C47.7767 100.048 47.7487 99.9834 47.7111 99.9243C47.6809 99.8704 47.6389 99.8239 47.5883 99.7884C47.5377 99.7528 47.4797 99.7292 47.4187 99.7193C47.3576 99.7093 47.2951 99.7132 47.2358 99.7308C47.1765 99.7484 47.122 99.7791 47.0762 99.8207C46.9531 99.9433 46.857 100.09 46.7938 100.252C46.7498 100.421 46.7328 100.596 46.7433 100.77C46.7433 102.041 46.7433 103.311 46.7433 104.582C46.7478 104.756 46.7677 104.93 46.8029 105.1C46.8339 105.27 47.0853 105.466 47.2705 105.482C47.4856 105.503 47.7888 105.278 47.8082 105.064C47.8277 104.749 47.8276 104.432 47.8238 104.116C47.8232 104.081 47.8147 104.047 47.799 104.016C47.7832 103.986 47.7607 103.959 47.7331 103.938C47.4157 103.796 47.3975 103.526 47.4079 103.236C47.4195 102.92 47.4221 102.602 47.4338 102.285C47.4453 102.217 47.4792 102.154 47.5301 102.107C47.581 102.06 47.646 102.032 47.7149 102.026C48.5985 102.017 49.4808 102.009 50.3631 102.008C50.6779 102.008 50.8062 102.137 50.8075 102.456C50.8075 103.727 50.8075 104.997 50.814 106.268C50.814 106.597 50.6585 106.786 50.3838 106.926C49.9396 107.144 49.4681 107.302 48.982 107.395C47.9465 107.638 46.872 107.668 45.8247 107.481C44.6898 107.266 44.0005 106.595 43.7919 105.468C43.7621 105.294 43.7439 105.118 43.7375 104.942C43.7246 104.696 43.7194 104.449 43.7194 104.202C43.722 103.639 43.722 103.074 43.722 102.51Z" fill="#0D623E"/>
<path d="M61.4248 102.523V104.644C61.4248 104.929 61.4442 105.222 61.6023 105.462C61.7536 105.701 61.8231 105.984 61.8005 106.266C61.7914 106.549 61.8005 106.831 61.7875 107.113C61.7881 107.158 61.7793 107.202 61.7618 107.243C61.7442 107.283 61.7183 107.32 61.6857 107.35C61.653 107.38 61.6144 107.403 61.5724 107.417C61.5303 107.431 61.4858 107.436 61.4416 107.432C60.4173 107.432 59.3916 107.432 58.3646 107.432C58.3205 107.434 58.2764 107.427 58.2352 107.411C58.1939 107.395 58.1564 107.371 58.1248 107.34C58.0932 107.309 58.0684 107.272 58.0517 107.231C58.035 107.19 58.0268 107.146 58.0278 107.102C58.0213 106.784 58.0278 106.467 58.0213 106.148C58.0159 105.971 58.0686 105.797 58.1716 105.652C58.3192 105.451 58.3974 105.208 58.3944 104.959C58.3944 103.368 58.3918 101.777 58.3866 100.187C58.3866 100.058 58.2895 99.9774 58.2014 100.014C58.1133 100.05 58.0148 100.112 58.0019 100.229C57.9826 100.368 57.9705 100.509 57.9656 100.65C57.9591 100.932 57.9656 101.215 57.9656 101.498C57.9656 101.603 57.9539 101.708 57.9462 101.814C57.9361 101.884 57.9034 101.948 57.8533 101.996C57.8031 102.045 57.7383 102.076 57.6689 102.084C57.174 102.094 56.6791 102.103 56.1841 102.102C55.8693 102.102 55.7372 101.973 55.7359 101.649C55.7307 100.483 55.7307 99.3166 55.7359 98.1506C55.7359 97.8915 55.8655 97.7451 56.1051 97.7373C56.2464 97.7373 56.3876 97.7373 56.5301 97.7373H63.3241C63.5003 97.7373 63.6765 97.7542 63.8527 97.7645C63.905 97.7706 63.9542 97.7924 63.9938 97.8271C64.0334 97.8618 64.0614 97.9078 64.0743 97.9589C64.1025 98.0608 64.1139 98.1667 64.1079 98.2724C64.1079 99.3684 64.1079 100.464 64.1079 101.559C64.117 101.665 64.1038 101.771 64.0691 101.872C64.0289 101.954 63.9395 102.062 63.8566 102.071C63.2607 102.149 62.6571 102.145 62.0622 102.061C62.0293 102.048 61.9994 102.029 61.9748 102.004C61.9502 101.979 61.9313 101.949 61.9197 101.916C61.8879 101.815 61.8722 101.71 61.8731 101.605C61.8731 101.286 61.8731 100.968 61.8653 100.65C61.8653 100.51 61.8394 100.37 61.8225 100.23C61.8122 100.137 61.6645 100.036 61.5945 100.077C61.544 100.107 61.4753 100.156 61.4649 100.207C61.4393 100.38 61.4259 100.556 61.4248 100.731C61.4248 101.331 61.4248 101.932 61.4248 102.534V102.523Z" fill="#10623E"/>
<path d="M33.3016 95.6024C33.1293 95.6355 32.9675 95.7098 32.83 95.8188C32.7098 95.9222 32.6141 96.0511 32.5498 96.196C32.4854 96.3409 32.454 96.4983 32.4578 96.6568C32.4617 96.8154 32.5007 96.9711 32.572 97.1127C32.6433 97.2543 32.7451 97.3784 32.8702 97.4759C33.0175 97.5739 33.1721 97.6605 33.3327 97.735C33.4286 97.7855 33.4467 97.8749 33.391 97.9941C33.2614 98.2597 33.1228 98.3296 32.9078 98.1897C32.4557 97.9136 31.9532 97.7304 31.4295 97.6508C30.4512 97.4844 29.4492 97.5188 28.4846 97.7518C28.2126 97.8192 27.9511 97.9234 27.7073 98.0615C27.4062 98.2131 27.1454 98.4341 26.9463 98.7062C26.7472 98.9782 26.6155 99.2937 26.562 99.6265C26.4976 100.009 26.4617 100.395 26.4545 100.782C26.4363 101.347 26.4545 101.912 26.4545 102.475C26.4545 103.039 26.4402 103.605 26.4545 104.169C26.4616 104.592 26.5001 105.014 26.5698 105.431C26.6328 105.816 26.7915 106.18 27.0314 106.488C27.2714 106.796 27.5848 107.039 27.9431 107.194C28.1662 107.301 28.401 107.383 28.6427 107.436C29.6824 107.66 30.7577 107.66 31.7974 107.436C32.0385 107.38 32.2723 107.297 32.4945 107.188C32.7527 107.07 32.9831 106.9 33.1707 106.687C33.3582 106.475 33.4987 106.225 33.5827 105.954C33.7004 105.621 33.7647 105.271 33.7732 104.918C33.7732 103.363 33.781 101.808 33.7641 100.261C33.7393 99.8766 33.6913 99.4937 33.6203 99.1148C33.8095 98.7261 34.1994 98.5084 34.4314 98.1521C34.6577 97.8362 34.8031 97.4697 34.855 97.0846C34.947 96.1038 34.3044 95.4366 33.3016 95.6024ZM30.7273 104.228C30.7145 104.51 30.6829 104.791 30.6327 105.068C30.6135 105.172 30.56 105.267 30.4807 105.338C30.4013 105.408 30.3007 105.45 30.1948 105.457C30.088 105.457 29.9831 105.429 29.8917 105.374C29.8002 105.318 29.7258 105.239 29.6766 105.144C29.6303 105.05 29.5972 104.949 29.5781 104.845C29.5615 104.669 29.5545 104.493 29.5574 104.317C29.5574 103.15 29.5574 101.984 29.5574 100.818C29.5513 100.607 29.5683 100.395 29.6079 100.188C29.6315 100.084 29.6825 99.9879 29.7557 99.9105C29.8288 99.833 29.9214 99.7766 30.0238 99.747C30.3127 99.6498 30.6405 99.817 30.6716 100.099C30.6983 100.309 30.7135 100.519 30.7169 100.73C30.7169 101.297 30.7169 101.861 30.7169 102.426C30.7312 103.027 30.7415 103.629 30.7273 104.228Z" fill="#0D623E"/>
<path d="M72.8051 105.959C72.7945 105.854 72.7531 105.754 72.686 105.671C72.4839 105.398 72.4515 105.09 72.4515 104.765C72.4515 104.439 72.4515 104.128 72.432 103.811C72.4262 103.634 72.3809 103.461 72.2996 103.304C72.2182 103.147 72.1028 103.011 71.9617 102.904C71.8788 102.839 71.7829 102.791 71.7026 102.728C71.6807 102.714 71.6623 102.696 71.6488 102.674C71.6353 102.652 71.6271 102.627 71.6249 102.601C71.6226 102.575 71.6264 102.549 71.6358 102.525C71.6452 102.501 71.6601 102.48 71.6793 102.462C72.1029 102.175 72.4152 101.815 72.5357 101.296C72.6733 100.745 72.6866 100.169 72.5745 99.6121C72.5046 99.2258 72.3282 98.8668 72.0652 98.5754C71.8021 98.284 71.463 98.0718 71.0859 97.9628C70.6158 97.803 70.1223 97.7224 69.6258 97.7244C68.9534 97.7335 68.281 97.7244 67.6086 97.7244H67.1849C66.5825 97.7244 65.9813 97.7244 65.3802 97.7322C65.121 97.7322 65.0161 97.8617 65.0109 98.1351C65.0045 98.4525 65.0109 98.7712 65.0045 99.0886C64.9794 99.3366 65.0525 99.5844 65.2079 99.7792C65.3359 99.9512 65.3967 100.164 65.3789 100.378C65.3789 101.827 65.3789 103.276 65.3789 104.724C65.3942 105.009 65.3267 105.292 65.1845 105.539C65.0523 105.749 64.9897 105.995 65.0058 106.243C65.0122 106.49 65.0058 106.738 65.0058 106.985C65.0058 107.02 65.0058 107.056 65.0058 107.091C65.0049 107.135 65.0128 107.179 65.0289 107.219C65.0451 107.26 65.0692 107.297 65.0999 107.328C65.1305 107.359 65.1671 107.384 65.2075 107.401C65.2478 107.417 65.2911 107.426 65.3348 107.426C66.3609 107.426 67.387 107.426 68.4131 107.426C68.4485 107.429 68.484 107.421 68.5142 107.402C68.5869 107.335 68.6549 107.262 68.7176 107.185C68.737 107.154 68.746 107.118 68.7435 107.082C68.7305 106.529 68.886 105.946 68.4662 105.46C68.4465 105.431 68.4348 105.396 68.4326 105.361C68.3704 104.835 68.3263 104.307 68.4403 103.784C68.457 103.757 68.4802 103.734 68.5078 103.718C68.5354 103.703 68.5666 103.694 68.5984 103.693C69.0221 103.736 69.2786 103.952 69.3175 104.333C69.3498 104.648 69.3459 104.967 69.3615 105.284C69.3874 105.849 69.4081 106.414 69.447 106.977C69.469 107.305 69.6012 107.428 69.9082 107.432C70.4381 107.44 70.9693 107.44 71.5005 107.432C71.8529 107.432 72.2079 107.432 72.559 107.4C72.6393 107.4 72.7715 107.283 72.7766 107.216C72.8064 106.804 72.8116 106.381 72.8051 105.959ZM69.4949 101.127C69.478 101.229 69.4393 101.327 69.3815 101.414C69.3237 101.501 69.2481 101.574 69.1597 101.629C69.0713 101.684 68.9722 101.72 68.8689 101.734C68.7656 101.748 68.6606 101.74 68.5608 101.71C68.5306 101.7 68.5031 101.683 68.4806 101.66C68.4581 101.638 68.4412 101.61 68.4313 101.58C68.3976 101.307 68.382 101.031 68.3795 100.998C68.3795 100.581 68.3795 100.408 68.3795 100.234C68.3795 99.809 68.5556 99.7947 68.9223 99.8517C69.044 99.8666 69.1584 99.9177 69.2508 99.9983C69.3432 100.079 69.4093 100.185 69.4405 100.304C69.5165 100.571 69.535 100.852 69.4949 101.127Z" fill="#0D623E"/>
<path d="M81.5672 105.887C81.5629 105.816 81.5386 105.748 81.4972 105.691C81.1085 105.197 81.0347 104.597 80.9233 104.007C80.5994 102.311 80.275 100.615 79.9503 98.9177C79.8907 98.6067 79.8298 98.2958 79.7624 97.9861C79.7428 97.9185 79.7028 97.8585 79.6479 97.8145C79.5929 97.7704 79.5257 97.7444 79.4554 97.74C78.1849 97.74 76.9135 97.74 75.6412 97.74C75.5721 97.7482 75.5072 97.7775 75.4553 97.8238C75.4034 97.8702 75.3669 97.9314 75.351 97.9991C75.2991 98.2038 75.2473 98.4098 75.2098 98.6171C74.8613 100.524 74.5114 102.431 74.1733 104.34C74.0995 104.759 74.0438 105.174 73.795 105.539C73.7363 105.627 73.7027 105.729 73.6978 105.835C73.6978 106.292 73.7056 106.749 73.716 107.207C73.716 107.336 73.83 107.371 73.9194 107.421C73.9529 107.433 73.9888 107.437 74.0243 107.434C74.8716 107.434 75.7194 107.434 76.5675 107.434C76.6367 107.434 76.7051 107.419 76.7671 107.388C76.8241 107.357 76.8966 107.3 76.9044 107.247C76.9368 107.003 76.9536 106.759 76.964 106.514C76.9821 106.125 76.973 105.736 76.7191 105.403C76.6802 105.353 76.688 105.267 76.6725 105.199C76.666 105.165 76.6663 105.13 76.6734 105.096C76.6805 105.062 76.6943 105.03 76.714 105.002C76.7337 104.974 76.7588 104.949 76.788 104.931C76.8171 104.912 76.8496 104.9 76.8836 104.894C77.1998 104.894 77.5172 104.886 77.8346 104.894C77.8782 104.895 77.9209 104.907 77.9587 104.928C77.9966 104.95 78.0283 104.981 78.0511 105.018C78.0738 105.055 78.0868 105.098 78.0888 105.141C78.0908 105.185 78.0818 105.228 78.0626 105.267C77.9793 105.422 77.9074 105.582 77.8475 105.747C77.7263 106.258 77.7263 106.79 77.8475 107.301C78.1961 107.56 78.5977 107.4 78.9734 107.431C79.2183 107.453 79.4683 107.431 79.7158 107.431C80.1395 107.431 80.5631 107.431 80.9867 107.431C81.1263 107.431 81.2654 107.415 81.4013 107.383C81.4336 107.372 81.463 107.354 81.4873 107.33C81.5115 107.306 81.5299 107.277 81.5412 107.244C81.6105 106.795 81.6192 106.338 81.5672 105.887ZM77.319 103.004C77.284 103.004 77.249 103.004 77.214 102.997C77.1705 102.996 77.1277 102.986 77.0885 102.966C77.0493 102.947 77.0146 102.92 76.9866 102.887C76.9586 102.854 76.9379 102.815 76.926 102.773C76.9141 102.731 76.9111 102.687 76.9173 102.644C77.0106 102.089 77.0987 101.535 77.1998 100.982C77.2101 100.927 77.284 100.879 77.3371 100.838C77.42 100.772 77.4667 100.8 77.4796 100.905C77.5664 101.46 77.6636 102.014 77.7387 102.57C77.7957 102.883 77.6532 103.013 77.319 103.004Z" fill="#0D623E"/>
<path d="M8.29951 100.211C8.29265 99.9998 8.25823 99.7907 8.19715 99.5887C7.94711 98.735 7.33039 98.2375 6.52584 97.9537C6.12809 97.8047 5.70684 97.7284 5.2821 97.7283C4.61099 97.7374 3.93987 97.7283 3.26876 97.7283C2.59765 97.7283 1.92653 97.7283 1.25542 97.7283C1.11531 97.7277 0.975509 97.7416 0.838249 97.7697C0.805731 97.7811 0.776237 97.7997 0.751993 97.8242C0.727748 97.8487 0.709379 97.8783 0.698316 97.911C0.667068 98.0482 0.653163 98.1888 0.65688 98.3294C0.66854 98.8826 0.545452 99.4553 0.940605 99.9502C1.01704 100.045 1.01316 100.221 1.01316 100.36C1.01835 101.84 1.01835 103.321 1.01316 104.803C1.02285 105.087 0.939087 105.366 0.774766 105.598C0.69942 105.716 0.659021 105.854 0.658177 105.994C0.647812 106.383 0.658158 106.771 0.671114 107.16C0.675831 107.23 0.706191 107.296 0.756389 107.345C0.806588 107.394 0.873112 107.423 0.943198 107.426C2.00212 107.426 3.06104 107.426 4.11997 107.426C4.18916 107.421 4.25468 107.393 4.30545 107.346C4.35621 107.299 4.38908 107.235 4.3985 107.167C4.40887 106.778 4.42313 106.389 4.41406 106.001C4.40102 105.862 4.36603 105.726 4.31041 105.599C4.0215 104.806 4.09145 104.705 4.94912 104.692C5.12662 104.692 5.30283 104.684 5.47903 104.692C5.86831 104.69 6.25509 104.63 6.62689 104.515C7.39517 104.298 7.93414 103.834 8.15698 103.052C8.23012 102.817 8.27364 102.574 8.28654 102.329C8.31375 101.622 8.31117 100.915 8.29951 100.211ZM5.13049 102.131C5.08385 102.479 4.68225 102.692 4.3143 102.583C4.26326 102.567 4.2186 102.536 4.18705 102.493C4.15551 102.45 4.13879 102.398 4.13939 102.344C4.12513 101.992 4.13939 101.638 4.13939 101.286H4.14717C4.14717 100.897 4.13552 100.509 4.15625 100.12C4.16973 100.071 4.19508 100.026 4.2301 99.9886C4.26512 99.9516 4.30871 99.9237 4.35703 99.9075C4.72239 99.8401 5.10848 100.107 5.14346 100.437C5.20608 101 5.20172 101.569 5.13049 102.131Z" fill="#0D623E"/>
<path d="M97.7399 9.09888H1.18934V91.0288H97.7399V9.09888Z" stroke="#E91E44" stroke-width="1.29558" stroke-miterlimit="10"/>
<path d="M94.2094 12.0593H19.8936V16.2453H94.2094V12.0593Z" fill="#E91E44"/>
<path d="M94.2094 18.6863H19.8936V22.8723H94.2094V18.6863Z" fill="#E91E44"/>
<path d="M94.2094 24.6523H19.8936V28.8384H94.2094V24.6523Z" fill="#E91E44"/>
<path d="M94.2094 31.155H19.8936V35.3411H94.2094V31.155Z" fill="#E91E44"/>
<path d="M94.2094 37.2725H19.8936V41.4585H94.2094V37.2725Z" fill="#E91E44"/>
<path d="M94.2094 43.6572H19.8936V47.8432H94.2094V43.6572Z" fill="#E91E44"/>
<path d="M94.2094 49.9927H19.8936V54.1787H94.2094V49.9927Z" fill="#E91E44"/>
<path d="M94.2094 56.3604H19.8936V60.5464H94.2094V56.3604Z" fill="#E91E44"/>
<path d="M94.2094 62.6426H19.8936V66.8286H94.2094V62.6426Z" fill="#E91E44"/>
<path d="M94.2094 69.114H19.8936V73.3H94.2094V69.114Z" fill="#E91E44"/>
<path d="M15.7905 12.0151H4.58635V16.2012H15.7905V12.0151Z" fill="#E91E44"/>
<path d="M15.7905 18.6421H4.58635V22.8281H15.7905V18.6421Z" fill="#E91E44"/>
<path d="M15.7905 24.6069H4.58635V28.793H15.7905V24.6069Z" fill="#E91E44"/>
<path d="M15.7905 31.1108H4.58635V35.2969H15.7905V31.1108Z" fill="#E91E44"/>
<path d="M15.7905 37.2285H4.58635V41.4145H15.7905V37.2285Z" fill="#E91E44"/>
<path d="M15.7905 43.6133H4.58635V47.7993H15.7905V43.6133Z" fill="#E91E44"/>
<path d="M15.7905 49.9485H4.58635V54.1345H15.7905V49.9485Z" fill="#E91E44"/>
<path d="M15.7905 56.3164H4.58635V60.5024H15.7905V56.3164Z" fill="#E91E44"/>
<path d="M15.7905 62.5986H4.58635V66.7846H15.7905V62.5986Z" fill="#E91E44"/>
<path d="M15.7905 69.0701H4.58635V73.2561H15.7905V69.0701Z" fill="#E91E44"/>
<path d="M94.1758 76.8242H4.73017V81.0102H94.1758V76.8242Z" fill="#E91E44"/>
<path d="M94.1758 83.3772H4.73017V87.5632H94.1758V83.3772Z" fill="#E91E44"/>
<path d="M51.4359 30.6586C51.3724 31.8389 51.3063 32.8909 51.2648 33.9429C51.2586 34.1071 51.2133 34.2674 51.1329 34.4107C51.0525 34.5539 50.9392 34.676 50.8023 34.7669C50.6045 34.9211 50.3977 35.0635 50.183 35.1931C49.3395 35.6582 48.5349 36.1907 47.7771 36.7854C47.6903 36.8554 47.5556 36.95 47.4429 36.8269C47.3702 36.7324 47.3121 36.6276 47.2705 36.5159C47.2608 36.4764 47.2608 36.435 47.2705 36.3954C47.2969 35.9452 47.455 35.5127 47.7253 35.1517C47.8769 34.9561 48.0479 34.7747 48.193 34.5752C48.3161 34.4067 48.3938 34.2215 48.2772 34.0116C48.2269 33.8963 48.1467 33.7966 48.0449 33.7228C47.943 33.649 47.8233 33.6037 47.6981 33.5918C47.4865 33.5724 47.2736 33.5724 47.062 33.5918C44.5745 33.8807 42.0857 34.1787 39.6538 34.7812C38.8337 34.9859 38.0343 35.2683 37.2298 35.5248C37.1099 35.562 36.9994 35.6246 36.9058 35.7081C36.8121 35.7917 36.7375 35.8945 36.6869 36.0094C36.5872 36.2309 36.4991 36.4602 36.4188 36.6895C35.438 39.4932 34.57 42.3305 33.6708 45.1575C33.5981 45.3904 33.5376 45.6269 33.4895 45.8661C33.4299 46.1564 33.7887 46.5256 34.1049 46.5139C34.232 46.5087 34.3584 46.4935 34.4832 46.4686C34.7306 46.4129 34.9781 46.3507 35.2216 46.2807C37.6249 45.5967 40.0801 45.1147 42.53 44.6172C43.2786 44.4543 44.0481 44.4106 44.8102 44.4876C44.9559 44.4978 45.0929 44.5605 45.1956 44.6642C45.2984 44.7679 45.3599 44.9055 45.3686 45.0512C45.4127 45.9581 44.9644 46.6059 44.1728 47.0464C43.6943 47.316 43.18 47.5167 42.6453 47.6424C41.9846 47.794 41.3316 47.9792 40.6657 48.1023C39.4184 48.3455 38.1856 48.6582 36.9733 49.039C35.3204 49.5517 33.6949 50.1489 32.1032 50.8282C31.9483 50.8881 31.8075 50.9796 31.6899 51.097C31.5724 51.2143 31.4806 51.3549 31.4204 51.5097C31.2248 52.0007 31.046 52.4995 30.8633 52.9957C29.8787 55.6733 28.8949 58.3469 27.912 61.0167C27.8835 61.0931 27.842 61.1657 27.8135 61.2408C27.4831 62.1347 27.4715 62.1477 28.2773 62.7618C28.8032 63.1635 29.1703 63.7379 29.3138 64.3839C29.546 65.2908 29.5428 66.242 29.3047 67.1474C28.9938 68.3885 28.5028 69.5338 27.649 70.5275C27.3288 70.9114 26.9528 71.2451 26.5335 71.5173C25.076 72.4398 23.5796 72.4139 22.0663 71.6676C21.2747 71.279 20.8692 70.6182 21.0299 69.6426C21.0746 69.3619 21.1382 69.0844 21.2203 68.8122C22.6455 64.1895 24.0175 59.5553 25.6019 54.9806C25.6446 54.8667 25.6767 54.7492 25.6978 54.6295C25.718 54.5291 25.7132 54.4253 25.6838 54.3273C25.6544 54.2292 25.6014 54.1399 25.5294 54.0672C25.4024 53.9586 25.2696 53.857 25.1317 53.7627C25.0019 53.6622 24.8982 53.5319 24.8294 53.3828C24.7606 53.2337 24.7288 53.0703 24.7365 52.9063C24.7325 52.8254 24.7365 52.7442 24.7482 52.6641C24.9626 51.7094 25.306 50.7884 25.7691 49.9265C25.8941 49.7067 26.0921 49.5376 26.3288 49.4484C26.6384 49.3124 26.9545 49.1893 27.2629 49.0598C27.4359 48.9896 27.591 48.8815 27.7166 48.7434C27.8422 48.6052 27.9351 48.4406 27.9884 48.2617C28.2281 47.4843 28.4808 46.707 28.7321 45.9387C29.3894 43.9297 30.0467 41.9207 30.704 39.9117C30.7942 39.6417 30.8698 39.367 30.9307 39.089C30.9741 38.8455 30.9191 38.5948 30.7778 38.3919C30.7103 38.2897 30.605 38.2184 30.485 38.1937C30.2787 38.158 30.0668 38.1722 29.867 38.2352C29.5198 38.3842 29.2063 38.6005 28.8759 38.7832C27.9949 39.2712 27.1126 39.7579 26.229 40.2433C26.1085 40.3081 25.9259 40.2265 25.9349 40.1202C25.9349 40.0814 25.9077 40.0412 25.909 40.0023C25.9297 38.4632 25.9181 36.9227 26.1202 35.3901C26.2251 34.5868 26.2575 33.7745 26.4609 32.9829C26.5426 32.6694 26.6268 32.3545 26.689 32.0371C26.8561 31.1898 27.3575 30.555 28.083 30.0795C28.4981 29.7947 28.9367 29.5459 29.3941 29.3358C31.0527 28.5981 32.7584 27.9714 34.5 27.4598C35.6067 27.1688 36.7276 26.9345 37.8582 26.7576C39.6953 26.435 41.5389 26.1383 43.3838 25.8507C44.1378 25.7354 44.9009 25.6629 45.664 25.602C47.2045 25.4802 48.719 25.6732 50.2167 25.9984C50.4203 26.0506 50.6166 26.1281 50.801 26.229C50.9899 26.3212 51.1354 26.4834 51.2065 26.6812C51.3616 27.1004 51.4405 27.544 51.4397 27.991C51.4268 28.9212 51.4359 29.8528 51.4359 30.6586Z" fill="white" stroke="white" stroke-width="5.18232"/>
<path d="M69.8124 27.1672C69.2604 27.1879 68.7086 27.2268 68.1566 27.2255C67.0093 27.2373 65.8699 27.418 64.7752 27.7619C63.4747 28.1259 62.2247 28.6507 61.0543 29.3243C60.0826 29.9035 59.0941 30.458 58.1185 31.0332C57.9059 31.164 57.7036 31.3108 57.5134 31.4724C57.3359 31.6162 57.3385 31.9466 57.4927 32.1396C57.6778 32.3678 57.9297 32.5322 58.2131 32.6099C58.8221 32.7812 59.3978 33.0546 59.9154 33.4184C60.045 33.5214 60.1667 33.634 60.2795 33.7552C60.3028 33.7798 60.2989 33.8304 60.3054 33.8679C60.321 33.9573 60.2704 33.9975 60.1577 33.9975C59.76 34.039 59.3946 33.9016 59.0474 33.7695C58.6106 33.608 58.1474 33.5298 57.6819 33.5389C57.1299 33.5389 56.5767 33.522 56.0248 33.5078C55.6417 33.5117 55.2627 33.4294 54.9158 33.2668C54.7725 33.1895 54.662 33.0629 54.6049 32.9105C54.5306 32.6788 54.4977 32.4359 54.5077 32.1928C54.5284 31.6745 54.5828 31.1433 54.6372 30.6186C54.6839 30.1341 54.7461 29.6521 54.794 29.1689C54.8976 28.1194 54.9896 27.07 55.0985 26.0232C55.1408 25.531 55.2903 25.0539 55.5365 24.6256C55.7827 24.1972 56.1196 23.8279 56.5236 23.5435C59.0028 21.7046 61.871 20.4596 64.9073 19.9042C67.0437 19.5155 69.2047 19.3769 71.3735 19.3328C72.521 19.33 73.6653 19.4525 74.7861 19.6982C76.1387 19.9702 76.9484 20.7502 77.2568 22.0186C77.5833 23.3595 77.9046 24.7004 78.2142 26.0452C78.3365 26.6447 78.3272 27.2635 78.187 27.859C78.022 28.698 77.7566 29.514 77.3967 30.2895C75.4689 34.3901 73.69 38.5502 71.8957 42.7051C70.1492 46.746 68.3613 50.7714 66.5929 54.8045C66.4465 55.1401 66.2988 55.4769 66.1692 55.8203C65.9954 56.3189 65.9377 56.8507 66.0008 57.375C66.072 58.1212 66.7652 58.5902 67.5425 58.4425C67.8771 58.386 68.1941 58.253 68.4689 58.0538C69.0039 57.6548 69.5403 57.2571 70.0844 56.8671C70.258 56.7532 70.4384 56.6503 70.6247 56.5587C70.6411 56.5525 70.6588 56.5504 70.6762 56.5527C70.6936 56.5549 70.7102 56.5615 70.7245 56.5717C70.7407 56.5839 70.7539 56.5998 70.7629 56.618C70.7719 56.6362 70.7765 56.6563 70.7763 56.6766C70.6286 57.3594 70.293 57.9722 69.9419 58.5695C69.4555 59.383 68.8961 60.1505 68.2706 60.8627C67.5438 61.7087 66.7768 62.5236 66.006 63.332C65.5155 63.8467 64.954 64.2887 64.3385 64.6445C63.7596 65.0026 63.0871 65.1798 62.4068 65.1536C62.0069 65.1463 61.6151 65.0397 61.2666 64.8434C60.9181 64.6471 60.6239 64.3673 60.4104 64.0291C60.1375 63.6202 59.9648 63.1529 59.9064 62.6648C59.8211 61.9791 59.8557 61.2838 60.0087 60.61C60.197 59.8605 60.4422 59.1263 60.742 58.414C63.087 52.52 65.4895 46.6428 67.9493 40.7825C69.5654 36.9087 71.1809 33.0349 72.7961 29.1611C72.9839 28.7102 73.155 28.2542 73.3221 27.7943C73.396 27.5908 73.2042 27.2955 72.9814 27.2048C72.7024 27.1001 72.4043 27.0559 72.1069 27.0752C71.3425 27.1011 70.5781 27.1335 69.8137 27.1646L69.8124 27.1672Z" fill="white" stroke="white" stroke-width="5.18232"/>
<path d="M37.8711 60.4377C37.882 59.647 38.0748 58.8694 38.4347 58.1653C39.4349 56.1999 40.3353 54.1865 41.5726 52.3352C42.1647 51.4477 42.7075 50.5278 43.3074 49.6455C43.8723 48.8164 44.7675 48.5741 45.7547 48.9291C45.9717 49.0019 46.1589 49.1435 46.288 49.3325C46.4171 49.5214 46.481 49.7473 46.4699 49.9759C46.4683 50.3032 46.3788 50.624 46.2108 50.9048C46.0812 51.1108 45.9724 51.335 45.8454 51.5449C44.717 53.4027 43.7207 55.3267 42.7205 57.2454C42.3672 57.8889 42.0956 58.5739 41.9121 59.2847C41.7665 59.8777 41.7844 60.4992 41.9639 61.0829C42.2839 62.1194 43.2594 62.2101 43.9992 61.9043C44.4999 61.687 44.932 61.3377 45.2495 60.8938C45.8182 60.1358 46.3948 59.3844 46.8521 58.5617C48.2202 56.0889 49.5901 53.6174 50.9617 51.1471C51.2208 50.682 51.4799 50.2156 51.7701 49.7699C52.0039 49.4307 52.2556 49.1041 52.5242 48.7917C52.6303 48.6631 52.7558 48.5517 52.896 48.4614C53.2277 48.2476 53.5865 48.1465 53.9726 48.3422C54.1426 48.4186 54.2873 48.5418 54.3901 48.6973C54.4928 48.8528 54.5494 49.0342 54.5531 49.2206C54.5634 49.463 54.5363 49.7055 54.4727 49.9396C54.3702 50.2926 54.2456 50.6388 54.0996 50.9761C53.7161 51.8752 53.3274 52.7722 52.9336 53.667C52.4037 54.859 51.8569 56.0444 51.3322 57.2389C50.9407 58.09 50.6979 59.0019 50.6145 59.935C50.5532 60.5068 50.6904 61.0823 51.0031 61.5649C51.1212 61.7337 51.2625 61.8851 51.4229 62.0144C51.5352 62.1127 51.6697 62.1822 51.8148 62.2169C51.96 62.2517 52.1114 62.2507 52.256 62.214C53.2402 61.9789 54.159 61.5255 54.9443 60.8873C56.0326 59.9804 57.1649 59.1292 58.2843 58.2599C58.3201 58.2396 58.3599 58.2275 58.401 58.2246C58.442 58.2217 58.4831 58.228 58.5214 58.243C58.5526 58.2654 58.5785 58.2945 58.5971 58.3281C58.6157 58.3617 58.6265 58.399 58.6289 58.4373C58.6413 58.6384 58.6261 58.8403 58.5836 59.0372C58.4306 59.6347 58.1405 60.1883 57.7363 60.6541C56.5767 61.9497 55.4302 63.2543 54.1255 64.419C53.2283 65.2464 52.206 65.9268 51.0964 66.435C50.8312 66.5667 50.5464 66.6542 50.253 66.6941C50.0437 66.723 49.8305 66.6958 49.6351 66.6152C49.4398 66.5346 49.2694 66.4036 49.1414 66.2354C48.9086 65.9477 48.7601 65.601 48.7126 65.234C48.5921 64.3089 48.4535 63.3852 48.653 62.4523C48.7106 62.1745 48.7457 61.8924 48.7579 61.6089C48.7645 61.4863 48.7458 61.3636 48.7027 61.2485C48.6597 61.1335 48.5933 61.0286 48.5078 60.9404C48.2721 60.6813 47.8121 60.6696 47.6243 60.9469C47.4573 61.1785 47.3157 61.4274 47.2019 61.6892C46.9104 62.4057 46.6474 63.1325 46.374 63.8568C46.1365 64.5117 45.7986 65.1258 45.3726 65.6771C44.6639 66.5736 43.6987 66.8729 42.5702 66.7925C42.3172 66.7627 42.0659 66.7195 41.8175 66.663C40.9837 66.5173 40.2251 66.0902 39.6681 65.4529C38.4516 64.1029 37.8556 62.5158 37.8711 60.4377Z" fill="white" stroke="white" stroke-width="5.18232"/>
<path d="M92.8245 51.5485C91.9727 52.5192 90.9811 53.3576 89.8822 54.036C89.3132 54.3992 88.6894 54.6682 88.0347 54.8328C87.7883 54.8932 87.5357 54.9241 87.282 54.9248C87.008 54.9306 86.7372 54.8654 86.4959 54.7355C86.2546 54.6057 86.0509 54.4156 85.9048 54.1837C85.7507 53.9428 85.6536 53.6698 85.621 53.3857C85.5543 52.8207 85.601 52.2481 85.7584 51.7014C85.9424 50.9953 86.1471 50.2918 86.3868 49.6013C86.8428 48.2966 87.3364 47.0101 87.8119 45.7042C87.992 45.2079 88.1552 44.7053 88.3301 44.2065C88.5569 43.5392 88.5763 42.8539 88.5206 42.162C88.4735 41.6299 88.2656 41.1247 87.9246 40.7136C87.5598 40.2472 87.0391 39.928 86.458 39.8144C85.6654 39.6449 84.8397 39.7254 84.0949 40.0451C82.9711 40.5143 81.9111 41.1238 80.9401 41.8589C79.4062 43.0035 77.9701 44.2737 76.6466 45.6562C75.9921 46.3437 75.391 47.08 74.8483 47.8587C73.9709 49.0935 73.3513 50.4925 73.0267 51.9722C72.6433 53.6057 72.8124 55.3202 73.5074 56.8474C74.1474 58.2726 75.2603 59.1989 76.7088 59.8273C78.2 60.4686 80.1926 59.905 81.0269 58.476C81.2344 58.1241 81.4146 57.7568 81.5659 57.3773C81.7745 56.8487 81.9429 56.3046 82.1243 55.7656C82.2279 55.4573 82.3108 55.1425 82.421 54.8367C82.5191 54.5651 82.6792 54.3203 82.8887 54.1215C83.245 53.7743 83.8682 53.8961 84.0301 54.3573C84.0883 54.5074 84.1185 54.6667 84.1195 54.8276C84.1087 55.0705 84.0744 55.3117 84.0171 55.548C83.7787 56.565 83.8876 57.56 84.2218 58.5395C84.4369 59.1782 84.8463 59.436 85.5705 59.3971C86.2068 59.3711 86.829 59.202 87.3908 58.9022C88.3975 58.3568 89.3031 57.6948 90.0157 56.8164C90.9505 55.6688 91.7914 54.4479 92.5304 53.1654C92.774 52.7405 93.0396 52.3207 93.1316 51.8322C93.2002 51.5641 93.0836 51.4915 92.8245 51.5485ZM83.3188 47.505C83.1704 47.992 82.9886 48.4682 82.7747 48.9302C82.2966 49.9368 81.8043 50.9396 81.2783 51.9242C80.9663 52.4835 80.6242 53.0254 80.2535 53.5476C80.066 53.8104 79.8534 54.0542 79.6186 54.2757C79.2501 54.6141 78.7689 54.8034 78.2686 54.8069C78.07 54.8193 77.8715 54.7823 77.6907 54.6994C77.5098 54.6164 77.3523 54.49 77.2322 54.3314C77.0365 54.0993 76.8913 53.829 76.8056 53.5377C76.72 53.2464 76.6958 52.9405 76.7347 52.6394C76.8642 51.6029 77.1428 50.5911 77.7025 49.6712C78.1989 48.8792 78.7496 48.1225 79.3504 47.4065C79.8103 46.8212 80.3272 46.2831 80.8935 45.8C81.22 45.5292 81.5529 45.2662 81.9701 45.1302C82.1566 45.0647 82.3501 45.0212 82.5466 45.0007C82.776 44.9708 83.0081 45.0297 83.1954 45.1653C83.3828 45.3008 83.5113 45.5029 83.5546 45.7301C83.5725 45.8243 83.5851 45.9194 83.5922 46.0151C83.5897 46.5237 83.498 47.028 83.3214 47.505H83.3188Z" fill="white" stroke="white" stroke-width="5.18232"/>
<path d="M51.4151 30.6586C51.3516 31.8389 51.2856 32.8909 51.2441 33.9429C51.2378 34.1071 51.1926 34.2674 51.1122 34.4107C51.0318 34.5539 50.9185 34.676 50.7816 34.7669C50.5836 34.9209 50.3768 35.0632 50.1623 35.1931C49.3187 35.6582 48.5141 36.1907 47.7564 36.7854C47.6683 36.8554 47.5349 36.95 47.4221 36.8269C47.3494 36.7324 47.2914 36.6276 47.2498 36.5159C47.24 36.4764 47.24 36.435 47.2498 36.3954C47.2762 35.9452 47.4343 35.5127 47.7046 35.1517C47.8561 34.9561 48.0259 34.7747 48.1723 34.5752C48.2954 34.4067 48.3731 34.2215 48.2565 34.0116C48.2062 33.8963 48.126 33.7966 48.0241 33.7228C47.9223 33.649 47.8026 33.6037 47.6774 33.5918C47.4658 33.5724 47.2528 33.5724 47.0412 33.5918C44.5524 33.8807 42.0636 34.1787 39.6331 34.7812C38.813 34.9859 38.0136 35.2683 37.2091 35.5248C37.0891 35.5619 36.9785 35.6243 36.8849 35.7079C36.7912 35.7916 36.7166 35.8944 36.6662 36.0094C36.5652 36.2309 36.4784 36.4602 36.398 36.6895C35.416 39.4932 34.5492 42.3305 33.6501 45.1575C33.5768 45.3902 33.5162 45.6268 33.4687 45.8661C33.4091 46.1564 33.768 46.5256 34.0841 46.5139C34.2112 46.5087 34.3377 46.4935 34.4624 46.4686C34.7095 46.4133 34.9556 46.3507 35.2009 46.2807C37.6042 45.5967 40.0593 45.1147 42.5093 44.6172C43.2578 44.4543 44.0274 44.4106 44.7895 44.4876C44.935 44.4978 45.0718 44.5606 45.1744 44.6643C45.2769 44.7681 45.3382 44.9056 45.3466 45.0512C45.3907 45.9581 44.9437 46.6059 44.1521 47.0464C43.6735 47.316 43.1593 47.5167 42.6246 47.6424C41.9639 47.794 41.3096 47.9792 40.6437 48.1023C39.3968 48.3456 38.1645 48.6583 36.9525 49.039C35.2996 49.5517 33.6741 50.1489 32.0824 50.8282C31.9275 50.8881 31.7868 50.9796 31.6692 51.097C31.5517 51.2143 31.4598 51.3549 31.3997 51.5097C31.204 52.0007 31.0253 52.4995 30.8426 52.9957C29.858 55.6733 28.8742 58.3469 27.8913 61.0167C27.8628 61.0931 27.8213 61.1657 27.7928 61.2408C27.4611 62.1347 27.4494 62.1477 28.2566 62.7618C28.7824 63.1635 29.1495 63.7379 29.2931 64.3839C29.5252 65.2908 29.5221 66.242 29.284 67.1474C28.9731 68.3885 28.482 69.5338 27.6283 70.5275C27.308 70.9114 26.932 71.2451 26.5127 71.5173C25.0552 72.4398 23.5588 72.4139 22.0456 71.6676C21.254 71.279 20.8485 70.6182 21.0091 69.6426C21.0532 69.3617 21.1169 69.0842 21.1996 68.8122C22.6182 64.1895 23.9967 59.5553 25.5799 54.9806C25.6236 54.8669 25.6561 54.7493 25.6771 54.6295C25.6973 54.5291 25.6924 54.4253 25.6631 54.3273C25.6337 54.2292 25.5807 54.1399 25.5087 54.0672C25.3816 53.9586 25.2489 53.857 25.1109 53.7627C24.9809 53.6624 24.8771 53.5321 24.8082 53.383C24.7394 53.2339 24.7077 53.0704 24.7158 52.9063C24.7118 52.8254 24.7157 52.7442 24.7274 52.6641C24.9418 51.7094 25.2853 50.7884 25.7484 49.9265C25.8734 49.7067 26.0714 49.5376 26.3081 49.4484C26.6164 49.3124 26.9338 49.1893 27.2409 49.0598C27.4141 48.9899 27.5692 48.8818 27.6949 48.7436C27.8205 48.6055 27.9133 48.4407 27.9664 48.2617C28.2061 47.4843 28.4587 46.707 28.7113 45.9387C29.3678 43.9297 30.0251 41.9207 30.6832 39.9117C30.7736 39.6418 30.8489 39.3672 30.9087 39.089C30.9307 38.9685 30.9286 38.8449 30.9025 38.7253C30.8765 38.6057 30.8271 38.4924 30.7571 38.3919C30.6894 38.2899 30.5842 38.2187 30.4643 38.1937C30.2575 38.1581 30.0452 38.1723 29.845 38.2352C29.4991 38.3842 29.1855 38.6005 28.8552 38.7832C27.9742 39.2712 27.0915 39.7579 26.207 40.2433C26.0878 40.3081 25.9051 40.2265 25.9142 40.1202C25.9142 40.0814 25.887 40.0412 25.887 40.0023C25.909 38.4632 25.8974 36.9227 26.0995 35.3901C26.2044 34.5868 26.2368 33.7745 26.4402 32.9829C26.5218 32.6694 26.6061 32.3545 26.6682 32.0371C26.8354 31.1898 27.3367 30.555 28.0623 30.0795C28.4772 29.7945 28.9158 29.5457 29.3734 29.3358C31.0319 28.5979 32.7376 27.9712 34.4793 27.4598C35.5856 27.169 36.706 26.9346 37.8361 26.7576C39.6746 26.435 41.5169 26.1383 43.3618 25.8507C44.1171 25.7354 44.8802 25.6629 45.642 25.602C47.1825 25.4802 48.697 25.6732 50.196 25.9984C50.3996 26.0506 50.5959 26.1281 50.7803 26.229C50.9688 26.3214 51.1138 26.4836 51.1845 26.6812C51.3399 27.1004 51.4192 27.5439 51.419 27.991C51.406 28.9212 51.4151 29.8528 51.4151 30.6586Z" fill="#0D623E" stroke="#0D623E" stroke-width="1.5547" stroke-miterlimit="10"/>
<path d="M69.7916 27.1672C69.2397 27.1879 68.6878 27.2268 68.1359 27.2255C66.9885 27.2373 65.8491 27.418 64.7544 27.7619C63.454 28.1259 62.204 28.6507 61.0335 29.3243C60.0605 29.9035 59.0733 30.458 58.0964 31.0332C57.8845 31.1643 57.6827 31.3111 57.4927 31.4724C57.3152 31.6162 57.3165 31.9466 57.4719 32.1396C57.6571 32.3678 57.909 32.5322 58.1923 32.6099C58.8013 32.7815 59.3769 33.0548 59.8947 33.4184C60.0239 33.5214 60.1451 33.634 60.2574 33.7552C60.2821 33.7798 60.2782 33.8304 60.2847 33.8679C60.3002 33.9573 60.2497 33.9975 60.137 33.9975C59.7392 34.039 59.3739 33.9016 59.0254 33.7695C58.589 33.608 58.1263 33.5298 57.6611 33.5389C57.1079 33.5389 56.556 33.522 56.0041 33.5078C55.621 33.5117 55.2419 33.4294 54.8951 33.2668C54.7517 33.1892 54.6409 33.0628 54.5828 32.9105C54.5097 32.6786 54.4773 32.4357 54.487 32.1928C54.5077 31.6745 54.5608 31.1433 54.6165 30.6186C54.6632 30.1341 54.7253 29.6521 54.7733 29.1689C54.8769 28.1194 54.9676 27.07 55.0777 26.0232C55.1198 25.5309 55.2692 25.0538 55.5154 24.6254C55.7617 24.197 56.0987 23.8277 56.5029 23.5435C58.982 21.7046 61.8503 20.4596 64.8866 19.9042C67.023 19.5155 69.184 19.3769 71.3515 19.3328C72.4994 19.33 73.6441 19.4525 74.7654 19.6982C76.118 19.9702 76.9277 20.7502 77.236 22.0186C77.5625 23.3595 77.8838 24.7004 78.1935 26.0452C78.3151 26.6447 78.3058 27.2634 78.1663 27.859C78.0012 28.698 77.7359 29.514 77.376 30.2895C75.4469 34.3901 73.6693 38.5502 71.8749 42.7051C70.1285 46.746 68.3406 50.7714 66.5721 54.8045C66.4244 55.1401 66.2767 55.4769 66.1485 55.8203C65.974 56.3187 65.9164 56.8507 65.98 57.375C66.0513 58.1212 66.7444 58.5902 67.5218 58.4425C67.8561 58.3864 68.1728 58.2533 68.4468 58.0538C68.9819 57.6548 69.5196 57.2571 70.0624 56.8671C70.2366 56.7535 70.4174 56.6505 70.604 56.5587C70.6204 56.5525 70.6381 56.5504 70.6555 56.5527C70.6729 56.5549 70.6895 56.5615 70.7037 56.5717C70.7194 56.5844 70.7322 56.6004 70.7411 56.6185C70.7501 56.6366 70.755 56.6564 70.7555 56.6766C70.6078 57.3594 70.2723 57.9722 69.9199 58.5695C69.4344 59.3832 68.8754 60.1508 68.2499 60.8627C67.5231 61.7087 66.7561 62.5236 65.9852 63.332C65.4967 63.8512 64.9365 64.2979 64.3217 64.6587C63.7428 65.0168 63.0702 65.1941 62.39 65.1679C61.9901 65.1605 61.5983 65.0539 61.2498 64.8576C60.9013 64.6613 60.607 64.3815 60.3935 64.0433C60.1206 63.6345 59.948 63.1671 59.8895 62.6791C59.8035 61.9934 59.8382 61.298 59.9919 60.6243C60.1803 59.8749 60.425 59.1408 60.7239 58.4283C63.0715 52.5239 65.4743 46.6402 67.9325 40.7773C69.5485 36.9035 71.1637 33.0297 72.778 29.1559C72.9658 28.7051 73.1368 28.249 73.3053 27.7891C73.3791 27.5857 73.1861 27.2903 72.9645 27.1996C72.6855 27.0949 72.3874 27.0507 72.09 27.07C71.3256 27.0959 70.5612 27.1283 69.7968 27.1594L69.7916 27.1672Z" fill="#0D623E" stroke="#0D623E" stroke-width="1.5547" stroke-miterlimit="10"/>
<path d="M37.8504 60.4376C37.8613 59.6469 38.0541 58.8693 38.414 58.1652C39.4142 56.1998 40.3146 54.1864 41.5519 52.335C42.144 51.4476 42.6868 50.5277 43.2866 49.6454C43.8502 48.8162 44.7468 48.574 45.734 48.929C45.9506 49.0032 46.1371 49.1461 46.265 49.336C46.3929 49.5259 46.4553 49.7524 46.4427 49.981C46.4417 50.3083 46.3522 50.6293 46.1836 50.9099C46.054 51.1159 45.9452 51.34 45.8169 51.5499C44.6885 53.4078 43.6935 55.3317 42.6933 57.2505C42.34 57.8939 42.0684 58.579 41.8849 59.2897C41.7393 59.8828 41.7572 60.5043 41.9367 61.088C42.2567 62.1245 43.2322 62.2151 43.972 61.9094C44.4726 61.6921 44.9048 61.3428 45.2223 60.8988C45.7897 60.1409 46.3675 59.3895 46.8249 58.5668C48.1887 56.0948 49.5573 53.625 50.9306 51.1574C51.1897 50.6923 51.4488 50.2258 51.739 49.7802C51.9723 49.4406 52.2241 49.1141 52.4931 48.802C52.5991 48.6737 52.724 48.5623 52.8636 48.4716C53.1966 48.2579 53.5554 48.1568 53.9415 48.3524C54.1115 48.4289 54.2562 48.552 54.359 48.7075C54.4617 48.863 54.5183 49.0445 54.522 49.2308C54.5317 49.4732 54.5046 49.7156 54.4416 49.9499C54.3392 50.3031 54.2142 50.6493 54.0672 50.9863C53.6854 51.8855 53.2968 52.7825 52.9012 53.6773C52.3713 54.8692 51.8232 56.0547 51.2998 57.2492C50.9076 58.1 50.6648 59.012 50.5821 59.9453C50.5189 60.5163 50.6538 61.0917 50.9643 61.5751C51.0823 61.744 51.2236 61.8954 51.384 62.0247C51.4963 62.123 51.6308 62.1926 51.7759 62.2273C51.9211 62.2621 52.0725 62.261 52.2171 62.2242C53.201 61.9893 54.1194 61.5359 54.9041 60.8975C55.9924 59.9906 57.1261 59.1394 58.2455 58.2701C58.2812 58.2498 58.3211 58.2378 58.3621 58.2348C58.4031 58.2319 58.4442 58.2382 58.4825 58.2533C58.5137 58.2757 58.5396 58.3047 58.5582 58.3383C58.5768 58.3719 58.5877 58.4093 58.5901 58.4476C58.6025 58.6487 58.5872 58.8505 58.5447 59.0474C58.3918 59.6449 58.1017 60.1985 57.6974 60.6643C56.5314 61.9599 55.39 63.2646 54.0866 64.4293C53.192 65.2533 52.1733 65.9314 51.0679 66.4387C50.8033 66.5706 50.5188 66.6581 50.2258 66.6979C50.0165 66.7268 49.8032 66.6996 49.6079 66.619C49.4126 66.5384 49.2422 66.4073 49.1142 66.2392C48.8814 65.9515 48.7329 65.6048 48.6854 65.2377C48.5649 64.3127 48.4262 63.3889 48.6258 62.4561C48.6828 62.1782 48.7178 61.8962 48.7307 61.6127C48.7364 61.4902 48.7172 61.3677 48.6742 61.2528C48.6312 61.1379 48.5654 61.0329 48.4806 60.9442C48.2448 60.6851 47.7849 60.6734 47.597 60.9507C47.4301 61.1825 47.2881 61.4314 47.1734 61.693C46.8832 62.4095 46.6189 63.1363 46.3468 63.8605C46.1088 64.5156 45.7706 65.1296 45.344 65.6808C44.6367 66.5774 43.6714 66.8766 42.543 66.7963C42.2899 66.7666 42.0387 66.7233 41.7903 66.6668C40.9564 66.5214 40.1977 66.0943 39.6409 65.4567C38.4308 64.1028 37.8349 62.5157 37.8504 60.4376Z" fill="#0D623E" stroke="#0D623E" stroke-width="1.5547" stroke-miterlimit="10"/>
<path d="M92.8063 51.5485C91.9543 52.5189 90.9626 53.3572 89.864 54.036C89.295 54.3992 88.6712 54.6682 88.0166 54.8328C87.7702 54.8931 87.5175 54.924 87.2638 54.9248C86.9899 54.9306 86.719 54.8654 86.4777 54.7355C86.2364 54.6057 86.0328 54.4156 85.8866 54.1837C85.7319 53.9431 85.6349 53.67 85.6029 53.3857C85.5362 52.8207 85.5829 52.2481 85.7402 51.7014C85.9242 50.9953 86.1289 50.2918 86.3686 49.6013C86.8246 48.2966 87.3182 47.0101 87.7937 45.7042C87.9738 45.2079 88.137 44.7053 88.3119 44.2065C88.5387 43.5392 88.5581 42.8539 88.5024 42.162C88.4548 41.6298 88.2465 41.1247 87.9051 40.7136C87.5406 40.2475 87.0205 39.9283 86.4398 39.8144C85.6472 39.6449 84.8216 39.7254 84.0767 40.0451C82.9528 40.514 81.8927 41.1235 80.9219 41.8589C79.388 43.0035 77.9519 44.2737 76.6284 45.6562C75.9736 46.3437 75.372 47.08 74.8289 47.8587C73.9504 49.0931 73.3291 50.4915 73.0021 51.9709C72.62 53.6045 72.789 55.3186 73.4827 56.8461C74.124 58.2713 75.2356 59.1976 76.6841 59.826C78.1753 60.4673 80.1692 59.9037 81.0036 58.4747C81.2111 58.1228 81.3912 57.7555 81.5425 57.376C81.7511 56.8474 81.9196 56.3033 82.1009 55.7643C82.2033 55.456 82.2875 55.1412 82.3976 54.8354C82.4953 54.5639 82.655 54.319 82.8641 54.1202C83.2216 53.773 83.8448 53.8948 84.0067 54.356C84.065 54.506 84.0949 54.6655 84.0949 54.8263C84.0851 55.0692 84.0513 55.3105 83.9938 55.5467C83.7554 56.5637 83.8642 57.5587 84.1985 58.5382C84.4135 59.1769 84.823 59.4347 85.5472 59.3958C86.1835 59.3698 86.8056 59.2007 87.3675 58.9009C88.3741 58.3555 89.2797 57.6935 89.991 56.8151C90.9266 55.6678 91.7681 54.4469 92.5071 53.1641C92.7493 52.7392 93.0162 52.3194 93.1082 51.831C93.1782 51.5641 93.059 51.4915 92.8063 51.5485ZM83.3006 47.505C83.1523 47.992 82.9704 48.4682 82.7565 48.9302C82.2784 49.9368 81.7861 50.9396 81.2601 51.9242C80.9481 52.4835 80.606 53.0254 80.2353 53.5476C80.0479 53.8104 79.8352 54.0542 79.6005 54.2757C79.2319 54.6141 78.7508 54.8034 78.2505 54.8069C78.0519 54.8191 77.8535 54.782 77.6727 54.6991C77.4919 54.6161 77.3343 54.4898 77.214 54.3314C77.0188 54.099 76.8739 53.8287 76.7885 53.5374C76.7031 53.2462 76.679 52.9404 76.7178 52.6394C76.8474 51.6029 77.1246 50.5911 77.6843 49.6712C78.1779 48.8806 78.7246 48.1244 79.3206 47.4078C79.7813 46.8228 80.2985 46.2847 80.865 45.8013C81.1914 45.5305 81.5244 45.2675 81.9416 45.1315C82.1276 45.0659 82.3206 45.0224 82.5168 45.002C82.7464 44.9717 82.9788 45.0304 83.1664 45.1661C83.3541 45.3017 83.4827 45.5039 83.5261 45.7314C83.552 45.8544 83.5585 45.9814 83.5637 46.0164C83.5628 46.5241 83.4738 47.0278 83.3006 47.505Z" fill="#0D623E" stroke="#0D623E" stroke-width="1.5547" stroke-miterlimit="10"/>
</g>
<defs>
<clipPath id="clip0_448_970">
<rect width="106.31" height="108.226" fill="white"/>
</clipPath>
</defs>
</svg>
